<mxfile host="app.diagrams.net" agent="Mozilla/5.0 (Windows NT 10.0; Win64; x64) AppleWebKit/537.36 (KHTML, like Gecko) Chrome/133.0.0.0 Safari/537.36 Edg/133.0.0.0" version="26.0.12">
  <diagram name="Page-1" id="Z4odqaGNF5-eNhHLKVF0">
    <mxGraphModel dx="1990" dy="1240" grid="1" gridSize="10" guides="1" tooltips="1" connect="1" arrows="1" fold="1" page="1" pageScale="1" pageWidth="850" pageHeight="1100" background="#ffffff" math="0" shadow="0">
      <root>
        <mxCell id="0" />
        <mxCell id="1" parent="0" />
        <mxCell id="MzRNL4-QLkqZmelXcO3N-15" value="" style="rounded=1;whiteSpace=wrap;html=1;fillColor=none;fontStyle=1;fontFamily=Verdana;fontSize=15;" parent="1" vertex="1">
          <mxGeometry x="-250" y="100" width="1080" height="503.75" as="geometry" />
        </mxCell>
        <mxCell id="MzRNL4-QLkqZmelXcO3N-8" value="" style="group;fontStyle=1;fontFamily=Verdana;fontSize=15;" parent="1" vertex="1" connectable="0">
          <mxGeometry x="-190" y="360" width="92" height="104" as="geometry" />
        </mxCell>
        <mxCell id="MzRNL4-QLkqZmelXcO3N-6" value="" style="sketch=0;points=[[0,0,0],[0.25,0,0],[0.5,0,0],[0.75,0,0],[1,0,0],[0,1,0],[0.25,1,0],[0.5,1,0],[0.75,1,0],[1,1,0],[0,0.25,0],[0,0.5,0],[0,0.75,0],[1,0.25,0],[1,0.5,0],[1,0.75,0]];points=[[0,0,0],[0.25,0,0],[0.5,0,0],[0.75,0,0],[1,0,0],[0,1,0],[0.25,1,0],[0.5,1,0],[0.75,1,0],[1,1,0],[0,0.25,0],[0,0.5,0],[0,0.75,0],[1,0.25,0],[1,0.5,0],[1,0.75,0]];outlineConnect=0;fontColor=#232F3E;fillColor=#E7157B;strokeColor=#ffffff;dashed=0;verticalLabelPosition=bottom;verticalAlign=top;align=center;html=1;fontSize=15;fontStyle=1;aspect=fixed;shape=mxgraph.aws4.resourceIcon;resIcon=mxgraph.aws4.personal_health_dashboard;fontFamily=Verdana;" parent="MzRNL4-QLkqZmelXcO3N-8" vertex="1">
          <mxGeometry width="68" height="68" as="geometry" />
        </mxCell>
        <mxCell id="MzRNL4-QLkqZmelXcO3N-5" value="" style="image;aspect=fixed;html=1;points=[];align=center;fontSize=15;image=img/lib/azure2/general/Media_File.svg;fontStyle=1;fontFamily=Verdana;" parent="MzRNL4-QLkqZmelXcO3N-8" vertex="1">
          <mxGeometry x="40" y="40" width="52" height="64" as="geometry" />
        </mxCell>
        <mxCell id="MzRNL4-QLkqZmelXcO3N-11" value="Health Care Dataset&lt;div&gt;&lt;br&gt;&lt;/div&gt;" style="text;html=1;align=center;verticalAlign=middle;resizable=0;points=[];autosize=1;strokeColor=none;fillColor=none;fontStyle=1;fontFamily=Verdana;fontSize=15;" parent="1" vertex="1">
          <mxGeometry x="-230" y="462" width="180" height="50" as="geometry" />
        </mxCell>
        <mxCell id="MzRNL4-QLkqZmelXcO3N-16" value="" style="group;fontStyle=1;fontFamily=Verdana;fontSize=15;" parent="1" vertex="1" connectable="0">
          <mxGeometry x="150" y="197.5" width="620" height="342.5" as="geometry" />
        </mxCell>
        <mxCell id="MzRNL4-QLkqZmelXcO3N-2" value="" style="rounded=1;whiteSpace=wrap;html=1;fontStyle=1;fontFamily=Verdana;fontSize=15;" parent="MzRNL4-QLkqZmelXcO3N-16" vertex="1">
          <mxGeometry width="620" height="342.5" as="geometry" />
        </mxCell>
        <mxCell id="MzRNL4-QLkqZmelXcO3N-10" value="" style="image;aspect=fixed;html=1;points=[];align=center;fontSize=15;image=img/lib/azure2/analytics/Azure_Databricks.svg;fontStyle=1;fontFamily=Verdana;" parent="MzRNL4-QLkqZmelXcO3N-16" vertex="1">
          <mxGeometry x="288.6" y="42.5" width="62.8" height="68" as="geometry" />
        </mxCell>
        <mxCell id="MzRNL4-QLkqZmelXcO3N-12" value="" style="shape=image;verticalLabelPosition=bottom;labelBackgroundColor=default;verticalAlign=top;aspect=fixed;imageAspect=0;image=data:image/png,iVBORw0KGgoAAAANSUhEUgAAAgAAAAEKCAYAAABkC+0BAAAABGdBTUEAALGPC/xhBQAAACBjSFJNAAB6JgAAgIQAAPoAAACA6AAAdTAAAOpgAAA6mAAAF3CculE8AAAABmJLR0QA/wD/AP+gvaeTAAAAB3RJTUUH6AcHEQYmgIc82gAAZBJJREFUeNrtnXl8XFXZx3/PuTNJulOgLU2ztGWnC0iAMDN3JmNbKhVQUAM0BURQFFxQQfFVlO0VwQ3RFxBE9qaVqBUBy1JgOlsoEFEg7HTJ1hXonmXmnuf9IymUdpJMMvfM3EzO9/PpR8nM3HvPcs/zO88553kIGo1Go9FkQNvC4oMTJBYRowqEQwGUANgJYCMYr8KgR6iTny6ta2nXteUcSFeBRqPRaAZDy6IpJZLxK4C+AKCgn69vY+KbRRf9TgsBLQA0Go1GMwRhgFoWlnxLEn5OwJgB/ryZIS8qr21boWtSCwCNRqPRDBXjXw2jyV3yRwK+msFlLAZ+Ul7bcrOuUS0ANBqNRuNwGqtnFIx1b3+IwdX2qAn+TdmS1it1zeYGoatAo9FoNOkwxr31d7YZfwAguqK5puQaXbPaA6DRaDQah9JcU7KIgYeUXJzporIlzffqWtYCQKPRaDROMv4LS2Yz4XkAIxTdol1K6Zu6tO1lXdvZQy8BaDQajab3yTlADPyfQuMPACOEQYvXXDi1SNe4FgAajUajccLsv6b0yyD41SsNOlp0Jq/TNZ499BKARqPRaFLyzqLDxhZy+9sATcrSLS0pZWDq0ra4rn3tAdBoNBpNjiiQHZdl0fgDgGEI8efG6hkFuva1ANBoNBpNDmiuLhkBwveyfV8GjhpdsPUK3QJaAGg0Go0mF7jxBQIm5uLWxHT1mnOnTtWNoAWARqPRaLI/E78gh7cfaVDyt7oVFAstXQUajUaj2ZvNFx08pr2j6H0A7lw+h5R8+tSlrY/rFtEeAI1Go9Fkgd3tBcFcG38AEIJu1bEBtADQaDQaTbYMA4l5DnmUQ12dyR/qFtECQKPRaDRZgIlPcc6z4Efrasqm61bRAkCj0Wg0CmlbWHwwmI520CONEJC36pbRAkCj0Wg0CknA9SmnPRMDpzedV/o53TpaAGg0Go1GEUR8rCMfTPIfNpw/aZRuIS0ANBqNRqNitu1UAQCUdVmuq3QLaQGg0Wg0GhUeAMaxDn66HzbXlByuW0kLAI1Go9HYOfsPwgXgCAc/YiGDb9MtpQWARqPRaGxk3aTJhwModPZT0inNC0u+qFtLCwCNRqPR2GVaXWLGUHhOJtyyqXrCaN1iWgBoNBqNxg6DwDRjiDxqaae78GrdYloAaDQajcaWqTVmDp1HxffWnjP5aN1oWgBoNBqNJlNo6AgAAAWGYfyfbjQtADQajUaTAc3VJSMYsPOI3WYCvto9WVfmBZjTVFN6rm69weHSVaDRaDQa6RbHEKRh3xXpv6W1zX9urimZzcB31D05/2bzRQc/PuGeLTuGhUgrpBNY8qeIaRqIywAa2/NxO8DrAFonpRUv39D2AoWQ1AJAo9FoNH2ba+bZIFslxSsAUFTUcXV7e9EXQZii6NGL2zsKrwVwRb61yTsLDissOqjDw8zzwDSXgQpIdlN3g+0RQPsKIggh0FxcsrWphv5psfWLaUva3kzZ5rrbazQajaappvS3AH/Ptnk58YXli1vvB4CmRaXngHmpwsdPEuH40sUtrw7lNuBrIda9WXysQWIeE+YC8AMYmeFlLWbcI5K4vLSupV0LAI1Go9HsKwCeBnieXdcT4E+V1Lb+Z89/N9eUrGBgrjrriUjpkpYqUrjnQAXrasqmC5JzGTQPzHMAHKzoVi9ZCdcZ0+rWbtACQKPRaDR7GaKSjQRMtOlyiR2JcaNn1DV27SUADmfgVSiMNMjgC8prWx90cj23LSw+OEH0aQGax4AJ4Jgs3v75TaMnBU64qyGhBYBGo9FosHrhtEkuSmyw0RK/VrakZda+f25eVPILZvxIXUl4o1XgPmrafWu3OsbgX1I8MrnLMBk8j5jmAnwccnkCj+nqsiXNPwf0JkCNRqMZ9rhE8lg7Hecs8J9UfzdGyRuSO+lcgKaqKQlNEonk9VB66qCfslfDaHKXHQfIeQSal9zJJsBF1KOMcg7x5e8sOOzXhy9/t1MLAI1GoxnuSMy00x8sul39+1F8V9vu5oUlVzLhr+rsGy5be27xvVOXtr2creprPa/4SIuNeWCe1wwECfIAOMXg78+EggN2zwfwqBYAGo1GM9whOcvWFWGJV3r7qHRJy9+aFpU8AcapikpjkBC38bUw6VpIFTdYUz31EJcrOY+J5wI0z5IoGUp7DwnGbC0ANBqNRgNAzLbVgLnxaj+z9O+o3BBIgKfl7ZKvAC1/tuN6my86eMzuzsIqwTSPGXNByZm8505DU/AdNoSfXqPRaDR2wEG4motLdgAosumS75fVtvR7lK2pZsoNAKnM6Pe+i+VRxUvatgy4TvZZxwc4AKAgbxqd6M6yxc3f0B4AjUajGcasmzT5cGGf8Qejd/f/J2xQgm5kNxYBmKaoaAclybgBwKVp1UNN2XRAzhOgec3g+QQ57qMS5RkE/hDQpwA0Go1mWENCzLLzer1tANyX0rqW9qbzSr8LyY+oKx1f0nxuyX2lS1tW7ftJ2wXFZcmEMRfE8wCeC8hJ3eae877NmektLQA0Go1muAsAgq0CAIy0w/GWPdT8z+aakscYOF1R8QQLXtp0XukFSZlscsOoYOK5YJqXTOKIj+PpD6/V8CSSz2kBoNFoNFoC5EwAAICEuJwg5wIYoah8UyE57ILRPbfnYb/17Z3ptevXAbmMRqTRaDQaB8DH2ngx6XYnXhvID8prm1YT4ybdDlkTfHft+X9aAGg0Gs1wnQouOmwsQOU2XnL1IQ9u3DXQHyULXb8E8K5uEeXspgTfowWARqPRDHMKsHsWbFwAZ+C/g/ndtPvWdoDom7pFVE/++ZbSupYPtADQaDSa4W4PbF7/T/cEQCrKFjc/BcYy3Sqq4I2dGPHLfdpLo9FoNMPTJtBMe6+H1zL5ucstvwtgl24YFU2Nbx2++N3tWgBoNBqNBjZvAASMwS0B7KH4gbYmJv65bhfb2/ne8sWt+yVg0gJAo9FohqNJAAiw1QOwu+SwltWZXmRn1wG/YeAt3UK28fqIos7LU32gBYBGo9EMQ9bUTC4DcIBtFyS8akf2vRl1jV2A/JZuIVvYLi3rSxPu2bJDCwCNRqPRdA/+Ujhq/X9vymvbVoDoYd1KGZEE6Oypf1n/Rq99QNeRRqPRDD/IwGx77f/gTwCkfj7+PgM78qvWeSMISwCsVH8rurystvnJPkWgfg00Go1mGAoAm48AGuBX7Lxe6QMtrQS6fohX8zYw/5OB78KgWaW1rZOLujovAVCmtm1xa9mS5tv7+57OBaDRaDTDEYlZdubAEcyv2v2Im0ZPvHXizo0XApgxRGq1g4AYg58lSc+UWC0vUR2sjybl10J0vFX4ANSlQAYRHi/parkiTaGg0Wg0muHEOwsOKywc37EDgNumS7aV1bZMUfGsTeeV+iF5pYPt1WoCVkjwipFFnU/0tuEOANYtKvklMX6g8FkaE4kC36F1q7el82XtAdBoNJphxojx7UdLkNu2CxJeUfWsZQ81R9bVlNQSsMhBBj8mgShJeqxsaXNbWkJmUelFYFZn/AkbXIb8bFltesZfCwCNRqMZhljALFun0zaeAEiFTLiuNNzJ0wGMy0F1bQHRs8z8DCBWlNc2DTjWwbqa4nlg/qPCZ9wN0OeKH2hrGsiPtADQaDSaYQYBc+y1//av/+/NtLq1G9bVlFxDwO+yUD3tAEeJaIVFckX5YW3/ySS+wdpzJh9NEHWwb7llP33ExF8uX9zy4kB/qAWARqPRDBMYoOaFpecCbKs73YC6JYA9lLW13NY8ueQrIBxr86UtAP8G0woJuYIL3fFp963tsOPC66sPmZAwjMdgZ8ClfduU+OpUYX7TFIIajUajyVujfy1E01tlXoJ1Joi+APt3oCc6Pywac/jydztVl2XdomIfsYjYYLveAegZYl6BJJ7bO0WuXay5cGqRK5F8hhleha17X1lt61cG+2vtAdBoNJp8M/pBuJoml50sSFY3v40vEcliZfM9xlvZMP4AUL64LdZUM+V+gC4c4E+3EOg5CV7BhvH01AfXrVFa/wA1JZJ/Umr8GZHOrSO+kckltADQaDSaPKDtkuKRiR2YK0hUNwOfI8hxnI0bC7yazXIKF66USZwB4KA+vtYOUIzBKwCxouyIppftyFOQLs01U64jxnkKb7HanUx+sSxD4aUFgEaj0QxRVi+cNsktEp9jxlnJnZhDhELO9kMwv5bN25U80Pr+uoVTfkJEe++qtwC8COJniGhFx/tF9dnySuzLupop5wN0tcJbfCAsXjC5bsPmTC+kBYBGo9EMIdbVlE0n4rPA8kwg4WXObUh3JvUbAPelbEnrXc2LphBLmkageqvQCE27b+3WXLdNT9CiP0Hd/rouEvhiSW3r23ZcTG8C1Gg0Gqcb/YVlM0DydAKdAbDXSWO3yyXLB3r+PG+FGeTzACYoE1vM3yhf0nqnbW2nXy2NRqNxFlwNo7mw1AuJswA+E5A9O/fZaY+6dfIDbc3Dvb2aq0sOZMjlKo0/ATeX2Wj8tQDQaDQaBxn9JleZR5CsbgaqIXmy8x8ar5IDVUk2eemSCjd2bnwYwBEKb/P3kiNafmz3RbUA0Gg0mhyx5sKpRaKz6xRB4vRm4CyCnDCkrGkO1v+dxqSdG/+PgbkKK/nfBUbXBSpOMWgBoNFoNFnkverp4wrcXadL4CzqSi4AiZFDdwpNjcO5LZtqpvyYgUsU3qJZCnH6IQ9u3KXi4loAaDQajWJaLphykJXEaQJUzeg6hYHCvNiBLfDacG3TdYumfAlMNyi8xU4h+Iyyh9atV3UDLQA0Go1GAa3nFpcmhVgggDNkEp8hwJ1vi+XUycPSA9B0bukJYL4fUHYEUwJ0XslDLf9VWQ4tADQajcaumf45U46wBH2BCF+wgBMIoDzeIdemIoa+01lz7tSpEInHABqp6h5MfEX54pZHVJdFCwCNRqPJgLXnTD5aGGIhmM6ShJnDKLjK8uHW1u9VTx9niK7HAJqk7i70x/LFLb/LRnm0ANBoNJpBGAKXu+scABcS4Oket4dF0RnAS0xc2/XBiDuGU5tzEK5md9fDAGYovM1TpW3N385WmbQA0Gg0mjRpOr90Jiz8AOj6EoCRw6TYSQLCAJYJKR+ZsnR4Bv5pLi79A8DzFd7i9USi4GwKIakFgEaj0TiENQuLjzIgboTFZw6TuX47gKeYeJlh4LGSB1rfH9bCb2Hp9wH+hqrrM7CJDeP0Q2tXb8tmuXQuAI1Go+mFTdUTRne4Cq4F0XcAuPO8uB8y4XHBWGaMlk8U39W2W/cAoOm80s9B8jKo2/HfIaWcO3VpWzzbZdMeAI1Go0lBc03JSR3AYgCH5XEx2wB+hNlYtnnMhNAJdzUkdMt/zNrzio+H5FqFxp/BdFEujL8WABqNRpNq1rewdCGD7wFQlIfFe4cZywzBy6Yc3vrCxyFmm3TD7y0ALyiZwgn8E4RRqu5BwHWlS5qX5KqMeglAo9Fo9mLdoilfJqZ7FM76csHrDNQB4tHy2qYG3cp903ZJ8cjkThECcKI660sPly5uPjeXyZS0B0Cj0Wj2zPxrSj8D5j/ngfG3wIgw4R8WrH9Mr12/TrduenA1jOadxlKAlRl/IsSTbuPLuc6kqAWARqPRAFhTPfUQILkYgDFEi9BBwAomWuaS1j+Ll7Rt0a06cJpdpb8G+AyVXc3VlTyzdHFLR67LqgWARqPRADAKkr8F46Ah9tjbQPgXMy8bkehaPrFu807dkoOnqab0UoC/q7K9mMTpk+s2bHZCefUeAI1GM+zpDudrvIah4frfQsByybKua+vIpw5f/m6nbkFbjP9nAH5M4cTYkpI/P3Vp6+NOKbP2AGg0mmEPuYxLwU42/ryWQP+UkI+WtbWFshktbjiwblHZMWC5VKlNZPrO1KUtjzup3FoAaDQaLQAYZzrO5AP/EYxlAP5RuqT1Fd1KalhTPfUQwcl/MXCAwh52S9mS5tudVnYtADQazbCm6dzSYoBLHfAoFhhxEC+ThusfUx9ct0a3jlqaq0tGsDv5CAPlCo3/o6WJ5h84sfxaAGg0mmENE02n3J7GehdMt3S5uv562IMbN+kWyVK7XwvR8hYeAHCSsnsA/xmR6KihOlhOrAOhu4FGoxnWhoCtcTm8fRcxrts0ZuKftPHP8uz/7dIbmPAlhbdoM4jPcPLJDH0KQKPRDGvWLZoyl5hW5Pgx1gN0L4P+XF7btFq3ilrWnld8vJDiRYWT4KQg9pcsbn3eyfWglwCGMQsWLCjcsWPHyP1nRJyMxWI7hkk1CNM0U84Ao9Hoh1l+jqlk0eEMMbZbncsPpJBvxGKxNrtuMn/2/FG7x+4u2PtviUTCWrVq1fZ0rxEMBkcnk0m3nX2murraWL9+/djB/HbMmDG7ly9fPuijcIKpiXPfDycD/GMC/6ipZsozTLhrZ9cB/5xR19ilRyoFM19JMxUafzDwlNONvxYAw5wd23b9DRCn7fdyAG8COFrFPU1v1ZsAT+zna+0A1gJ4FkL+KRqNKstS4vP5L4OkP6T6zOudMzUef1ZlCFXh9/oXMMR5AM+DxMFMPcMHAAaB2IDpDbwNYAkZfFskEskogMjuMR1PQgrf3n9zG4VPA5if9tSmS9YDYuYn+wz9FUD1oKe/zZs/DSGeHsxvt2/f9XkA/xzsvUvaWtY0FZfsIGCMEwQpQKcQ45Qx7q0bm2tK7oPA3aUPtbyrRyz7SBjJJwosdwcUJXsiqEsgZHNn0wxHTDNoAjitl48Pr6ioGGn3PU86ae5BAB8JYHw//4oBeAFcDSneNb2Bq1X01fmz548i0E96fYkpeayq+vd7/HNNb+BFBj0G8LkADu7j60cAuEYm8Y2MxyXGjBR/T/uI2YwZMwp6nmefusKrmY1EPHuwPzWMzO5NISQJFHLgPHUSA1exxNvNNSUrmhaVntNYPaNAj16Zc9iDGzeB+TaFt/CvW1g2QwsAjTNheVNfY2pR0Zhj7L5lQYE1axA/cwO4wfQGfmn38+wa1f59MA7pdfhlzLb7npWVlWNNb9UyJloB4PiBWW/KyBthmmYpUpx15gEY7/Hjxx8NoGD/7pSZEWZg1iB/ujMcDq/N2NQSL3Xw20oMzAXz0jHubRuba0rubDq/dKYexDLDBb4JwHZFlxdE8n+1ANA4Dp8v8DkwfH1/S9o/+5WciUG9wn+y32fXowSDwYOJ6Mp+LK6tAsA0zeluoygO8JmDG1GQkaEjSSmNrLA4feMtjZR1YoEym4UPXgC8BhsyqiXdrr8DWD8EXt8DGLgEFr/SVFMSal5UUrPmwqlF0AyY4iVtWwj4rcJbfL753JJKLQA0jqG6utogphvTmHLMtv/uMqNZixT0PbuexErInwAY28+01DYRZJrmdEhRD/Cg3YJCioz2QjCnFABWkpJvpH+NFIaasau+PrQ6kz4J8KD2nDDoNTvaZ9p9azuI8Ysh9CoTgCpmLDa6ki1NNaW/XXvO5KOhGRBFRR2/BbBZWRsJ3Ojk8msBMMzY0Lrh/LSMELMCAZDKANF/wXT2R/9A3wSooZcR7xTYcHTV651TzoxL0/jqYcFgcHSm96usrBwLafwTQG+bH5NgPMqECyHkyRDyUGKuJOKvEfDUR98pQkuGb3sqAfBOfX19e9otKOSsFA3TCEAO9rE2Nm2cDiDVnpMfQcgT+vxHyWvs6p0l61vuIODlIfhaHwTw94RhvN5UU/LSupqSSzacP2kUNP0y4Z4tO8B0k6rrMzBn3cKyU5xafn0KYBgxY8aMAmb6WVomlOi4HmNr1wkpAjBz/xdEhmP1kbq9/zZ/9vz7d4/ueAvAlH2+Ptbj8Yyvr6//IJMHMTh5HRMK0zGZyWRyBoBVmdzPLQrv7UN0PcdkfTsWjzXu8/fVAF4AcLdpBoOw5E2hUCizBDCpvDqMgcWYZ0p1jczW/w2enUrXkcGPRiLR17M2pQ4hufZcebEQIg5Fu8OzQAUBd3ZZ7puaa0oeZIP+VPZg82vQ9IpVaNxudCW/C0BJOGgieSMDKwhgp5VdewCGEQeMPfAyEKalsMz1qb4eCARK7Lq3aZrTAIzevwOK/YzHU688tQuEeMoOK0RGA7PP55vBhPNSfPQCsH+4TuplzTtdAt7AHBC+0Ivpu2PylEmnxGL7Gf9PEI2GQiysjGYRFRUVbqTYvY8BbADsPsWB4hQfZbgBMOXSRKdhGG9n+x2ZurTtZQYuz4PXfTwD34HFrzYvKok11ZRe2HZJ8Uho9qNn+ed6hbc4oWnRlC86sexaAAwTfD7fGCL6nxQfbWEhU66tc9K+ZYDeNqBJ6mXzGNOIVF/v6OjYnNlzGL8AYOz3d+YfA7x2/+fIqA5Ign7ZiztkcTQeuayuri6tGOGZBmYaVTDqKKTYvU9IfwOg251MWRci0yOAnHJpojFjj8cgKa9tuYuAa/Pl3WeGF+B7kzvF+uaakjvXnlv8KT0ifpKSZMu9IH5D1fWJ6eccdJ7HXQuAYQKx8UOkWIMm4l+2t7f/G0Bi/x8J2zbB9TLLk2439nNPVlZWjgXYn8Jorm5oaEhk4IWoBOH0FNY4FqmPPAPQm/vrkMFvBDQ9wc8AXJHio9VJTnwtm+0ve9llTy5KewmAejnFkUQyIxczpTxtwf/N5ftSWttyHYBf59kwMJaBS4QQ/96zV2BT9YTR0IDqYLFUKvqOaJ5SeoHTyj2s9gAEg8EDZLucYLnEOLL2Pw9NbG1CATYfcsghm9KdmQ0FvF7vRKR2a24x3MYdDbGGhOkNrMG+LmIbNwISMHP/BTBeEwqFPpEow+PxHGjAfR+AcfsbMV6e0UNYdBNo/8VmBv205/++if2DI83GIPdCEMnzOLUa+ulANt7ZU/80k1MUQSbpl6YvkF7ZUp+K2BiPxwedxKaiomIkY/9lKTBVmr7Aw308y+vReFjpLL20tuWHTTUlWwi4MQ8nSxUE3NnuLvx1c03JEkvIO6c+1Pbv4SwCypa01jXXlF4F8PFKbiD5+ubqkiWldS3tTilzXgoAv98/QUpxAjEfD9BxAA4HeGqyS46DARDLlK8zgwALWN+6kU1v4F0QXoTECzDk89Fo9EVksNM5p24ecv0MnDLM6U17DDABb/I+AoBh3zE4Zsza3/TSCNMbuHOv/y4msIeBg1K9PiT4z4Of/VedAcnBFE8WjcXCz/UYybdSGMlxXu+cskGEBCYG5qX4+4ftXbvqst0HmHoTc/ylDLcmvZLJjwsLR88A2EihWI4B45g+PEp3qxdNYNS23Lz23CmvCUGLU4nSIT/zBcYwcImQ4pKmmpKXYNG5ZX9pfm9YegEAbmb+CROWK7rBFHbzNwDcogWAjVRXVxsbWjYEJcRpRJjDFs8mMH1kxgbVF3A4GIeDUAMpYHoDLUT4q8X0cDy+sn6o1E0gEJgmk/haihJuaO/YdcfHAyq/CdDn9vnW4RUVFSMbGhp2Z/IMCxYsKNyxbdcRKT4qBnDJ3sM6994iD0Wj0cG6hQUkX9+Llb76Y4WBN4lTzeSTxwIYkAAwTbMUEpNSmK4nMlnGyIBZai7LGa3/C+ZZgznYScxZ29k+dWnr46trJh/rJuM25l7DZw91PiDCLaXD1Ph/5PVZ0vJEU03JSgBVimTGjzdfdPDdE+7Z4ohka0PareX1Bo/zewJ/WN+6sZWJVhDx9wA+FmrSHJcw47sCHDe9VS/5vf4vDYX6k0n+OVKGbuWbP2HYmd5K8XNbQgLv2rrrmIzEJuP1oo6C7wx69u8JnAfguP0vi2cj9ZGVH70MQr6ZuhJ5wJ4QIcVhKV9/EllP6jKvYt44qDrilOEJABKDEyYZbzwcINNr168rXdxyOjOfA6A5r2a+jL9aCdeM0sUttdBASvljhZc/eHdH0RVOKetQFADC5wucbfoCUQH5MhO+BaSaaamEKxhUZ3qrXvd7/Gc6taL8lf7ZAJ2Tavbf0bX7rn06wpu9vA4ZLwPITGafzKGEdM9Z0bBi22B+PmPGjAIQUgaLMYDr9v7vSCSymYD3UxjtAe+FsGj/PSbdxcGWbPeDjhHJWYpEMVhk5gFgHlzfyHTj4WApX9L68I7EuMMY/GV0x2oYwpYfG5i4unRJS/W0urUbevtaMBh0eTxzpgwXATB1aVucgMfUVTuuePf8SROdUNahtARApll1OiRfD95/Npcb+EgmWmZ6qx5zSfp26PnQWidVGLtwMziFyJP4YEThqFtMb+DjPxFGp/K/2xESmEEzaeBLMU1M/At3gXF3NPTMoI+DjR970KUApqf4aKcEFpnewKI0SjCYOkim9gCkFgZK+wFbMyml/ae/gjjNDYA0uyeT4yd0Tnt7e6ZHp1IEh8LLBLzYl6bJZONhpsyoa+wC8MA7Cw77S9H4jvOY8V0QhlJyHgZwj+V2XTntvrVb+/qiaZrHJrv4zwYl6wDcPGzcAIyfgPBZRZPk0QVWwY8AfF8LgDQIeAKfYsJtLNnj0N5yepL406YncFm0PvyAI+rMGwhIxqm9SNBjgH02WHGv1iNjAUBCzvpoS8bHbAQhvJcoYQhsZnArET87efLklzI9iREMBkcnu3p1543GJ/Yf9FkNhwWDwdH7nljo2+jS5lSihwexnJBx/acWcS3R+MrqdK9hegJ/AWFfAfBeJvtDKivnTgIS+3nvBOiOSHzln5w+Lh2+/N1OAH8G8Od1C8tMQfIq7j5FQg5+7DXM4uvlS5qe7utLHo9nhEHuayBxJcAGmIaP8QdQuqTllaaakqUAahTZjEvbLij+XfEDbU25LKejBUBFRcXIosKRN0ngMqQI3uIs/wRGAbjf9PpP/nDbB99tbGzsyrHEtye+tR0hgVOEj2XQo7HYSqVn4ROd1g+IyA5X24BDAhdY1Jw0UrlUcEowGDwgFAptzWJ3SJXAZ6Cu+xQzXMroBICbrIEFh3Iw5UuaogCizTUlhwP4FgNfRer8BrlCEnB3YaLziol1m/sUsj5flZ8Yf9rb48OC1mCYIQ3jamFZX0KKPVQ2UJRMiGsAXJzLMjp2D4DPFzxhROHofxPo2443/p8cFC89cNxBIY/Hc2Du6i7wBQbs8pZkFBK4px6K97eDajdx+f3+CUT2ZQ+ENAY0cw+tCrUAeCfFR2OSCXlVlvvkzBRugbTrf8GCBYUgHL6/NsxwA6CRUgBwMtn+OoYopbUt75TWtlzuTiSnMvAjMFpz/lCM10jCW1rb8vW+jP+8innjTG/gVmIO7bvcI2Xn0N7vMAimPrhuDUD3KJw0fjnXGRwdKQB8Pv+3iGU8xZrjkIABj0HuULeLM7tUV1cbJHGDreXJICSwYRTOTu0UULyLO0k/A1LGPhjkyzrwOmDwE7188APTU9Wv+z0QCEwzvVVfyeSxA4FAKZAi6NUABNiOHTuOAuDerxgS9m8AZKxdtWrV9qFuPCbXbdhcXtty847kuOk9GwZz4dVIEHBz59aiE0qXtvTpvfJ7/ad1FHa9CuA7KezCtkwTcA1ZL4AQ1wPYrejyhiGM63NZPkctAfScF78djIvyoO/MchvJlcHK4Lye2WBWaGvbeCFRygAqrb0l2Nlr9B0Ppv2D13SHBH58UHZTWrM4xZKoEFLZLu6e2AeXpPjIAmhZvxvfGJ8D9skWOIjNkIZFf5BGyuUrA8RL/J5AgA35q2g0+tE6YDAYdHV18YkCfKFM4gKAM1p7tSzMSrUgPZDd+yRpFqeszMxc9d3RCfd7snWmaU7vc9DqdO0OvRjaMBQGgT0bBgE8kOV9As8zi6+WLWnqM9FUZeXcSW6j61cMOr+Prw079/9HXoCH1q1ft6jkNmL8QMlkkfDF5nNLKvsTaHkvAObPnj9qx7Zdy9Cd8z1P4COTgp8MBoO+bKz5BoPBomSXvKaXjnZFLBb+S9+eF18xwWhNMVUbtAeAUx8BbItEIpuV1XoSNyBV4hvGQ5H6lRf293vTF/hvCoO/J75E2nshwqvC75hefy1SD64GE74FKb5pegPvAtgAYHyyS5YJYOxe7ZbRmXNKfcwuOWbMmDfTb0NKtcN9d319KBO3sGDGMfuZQaIgJPUZjCbplncB+PpQGw2ytE+gnYHryhItv6Y69LmJ1vRUVYMStwN0cD8dYNi5//dRy78A5FcBjFdwdWLBNwCYn4uiOWIJwDTN8e2jO57OL+P/0TTnmGSntWzGjBkFqm9lJaxvI2XAF2qMxcL9hp+NxWJtALanMOIZ7FxPkQSI+BVVdRDwBGYxsDDFRwmLXOkujaQKijQ2eHKwfMAKu8D4Dvo+L94ddRLwo3uj3dhPfGiJdZl1v5Ru9reXL1/eOYDLzExx3UZkEBrbNM3DejbODmLWxK8O5SFB4T6BMAHHlte23NyX8Q+eHJxqegNPgPhhAAf324fE8BYA5bVNHwL0W4VG4pS1C6fMGZYCIBgMHgApnrVx05oDRQAFx4876A7l9ch0VS8D5s/SH6wp1ca1wysqKgYzUyFg/+UIlkLZAC67zyqnyvRwXzz+bHphTjmlAIAlrAELoVAotBVCfgGEQbms2Uhk5AFg2l8ADGLz3qwUojAz938v6aHTe52M1/JhWLBxn8BWBr5eWtsSLK1teaevqjO9VZckhXwFwGfS7kNMw3YJYA8FRtctAG9UZoiJbuIcHB/NqQCoqKgYmeyS/wScEthHKRf5ff6vqrp4MiGvSpVEh4GXY7HwsvRHV7YtJHAgEJi674x2kAYoLXy+Kj8IC1LN/oWLfjEAE/N2SnExyKBI0Wj0v8KAdxADPHd0dDRn8H65wTgqE+PdWxhh5gwjACITAWA15tPAMKOusau8tvWBstqW2czC3xOFLq2lJgIeIxdmlte23EV9/CZQGTjc9AaeA/hODHBzLBOGvQA45MGNuxh0o8JbnNi8sPTzw0YABINB14jCUX9Ht+tzWMBMvzdN0/ZAMH6/fzIY30ltz+XPMJAz/Iy3e5lbD/i5LauXMK/CUrIEQMy9xT74UzgcXpP+deRbqQ2PGPReiHA4vMZVII4n0GUA2tL4yQcAfptJoJ3CwjFHIlUeiAEIsE5350ykmJkYlFkMAPCgw0OvV7l/JNeUL2mKlta2nEHAkQT8Hr3uQOeNDD67tLbljNIHWlr7EoGmN3CVNPAqBp3gJjm89wD0sDMx7o9QGP6ZiW/iYHb35eVsE6DVKW8Bpe+GyhNGkBR/raysrLDzqFMy6RYGy/3UoxBShuujzw6oXdh1t8Eytp/xcw18EJBSvG6Az9737x9++OEbdldsMBgsSnakjvlvUeeA8pwbhcYryY7996MQWRm1WSgUSgK4A8CdpmmeSGx8RjKmCfDEnndxMwNvMFG8o2NnNNOsgcmksb5ApNhXYyTS3nHcxQXvuqW13zV2JXY8n9H7D/ETQyQHPKMSSbF7OAwUPa78y9dXH/K/SZfrUia+DKBJ6F7Ku5dh/KB7bbp3vN7gcQLyzwAyyW/Pbrd7HTSYUdfY1VRTegPA9yqZwABHNk2ZsghovT9bZcpJyEq/t+prDL5ruHYkAv4SiYfP1a+URqNJh8bqGQWjXTtOAqGtvLapTzH+URhf4EpkHkStNRoPl+gW6FFD1TCa3SWvADhG0R3W7kgccGTP8dH8EwBeb3CmgHwBwIhh3ZGIL43FIn/Ur5RGo7FtcuXxz2Wiu5A6AdZgRqpoNB7J6TKtaQaDRe2ulwebEdRummtKvsDA35QZZcZ3Spe0/CEbZcnqHoD5s+ePEpAPD3fj393I9Dv/yf7jodFoNBnSE8b3TiZ62j7jDxDTe7ksV8ATmAUp/95V0DUj1efvLDissOnc0uJsPlNJbcsyAC8onBz+ZFP1hNF5JwB2j+n4DYCj9esKAChkgYd7dllrNBrN4GbInuCpHYVdb6A7u6WtXl0mrM2Z8Q8EpknCkwDGW6kDisE1LjkZglubFpa82rRwyq+bFpXOb64uUTrBJIAZ8icK7zCpw1303bwSAKYZDIJThmcdrlgAPTR++viduio0Gs1g8Pv9k0FyGYDJaqajuQkC5Pf7J8gknthTLpEyGyUwdcPaFgCdIMwE0RVgfpLd+KCppvTpdTUlV62rKatQcb6+vLZtBQHPqKsBvrLlgikHqa7nrJwCqKioGAlp3Q0Q6VcWANBGzDWR+shKXRUajWbQZiIpTBAXKbt+DtIAB4PB0cku+RiAIz7WIZxSAFAIyaYavAV8IkZHEcDzCJgHSDTVlGxqBq2U4BUk6bGypc1tttQN0f+AeRXU7KUbZ1l0FYAfDnkBUFQw8iqADs1yP5IAvQPi18G8BSAG2M2gcuruWLnZ2Ur8BAlckM9nmTUaTdYkgNJxVUojqx6AiooKdzJh1QF00ifHzZT5KPbw2j4C4JM/BSYyuJqAaghGU03J6wQ8KiFXdH04MnL48nc7B/OsZYubX2yqKXkEwJlqTAW+3Xpu8R+mLG1rVlXfygVAIBAolUlcmcU+9G8ivsNwG/8IhUJbevuSz+c7ktg4E+BLASrPwnMlwfhpNB65GQMJzKPRaDS9W7dpCq/eUV//7PpslqaocPQ9YD41xWcHB08MHpI6CyQ3DnASfgwDxxDEVYXjO3Y31ZTGGbwCECvKa5saBiS/WFxNJM9A5sctU86dpRBXQ2HiK+UCQCb5pwCNVN93eB0Bl0fikUfS+XYsFnsLwM3V1dW/Xt+66WIC35gqlK5NNJPkhZHnIzE9Ymk0GhunidPBylZW1yKDhE8DxfQGfgXweb3OoAzMBFLk1BDiNchBz6lG7rNcsIaApyV4hSxwPz3tvrVb+/px+ZKmxuaakloGzldi1YCL1ywsvmXakrY3VVxf6SbA4InBQ9B3nmm73oJ/JKyu2eka/72pq6uzovGVd1lIHgMlmzrosa6k+1Pa+Gs0GgUWQpkHgJC9DYA+n/9bAK7os6hkpVwGYEl2JoeaxsAlBHrY6Epuaaopeam5puSmdTXF8166pMKdUphI188AdCqqGsMgukZVvSsVAFYBXwagSGnPIdwZja/8QqahdePx+KbJUyZ9hhh2BedJAHRFNL7ycy+88Mz7eqTSaDR2Ul1dbQBUpkxbZCkJkOmpWkhMt/Y/1KfeB1BW27QGgIrTVAaACgauIoinJ+7cuL5pUelfmmtKLm49t/ijBFnTlq5dS4DC8L10dkvNlONUXFnlEgBJ5vOVbvtnPByNhy+FTWvqdXV1FoDLTF/AAuObg38srCUhz41Go6ug0Wg0Cti4cWMZALfC8VW5AAh4A3Nkd2z9dCajM3vxVHAT8DqAkxQ/7kFgPpuBsy0h0FRTspqAFRK8gsB3MOgiRTZVyO5MhJ8dMh4A0wz6CJiqsDGaXIXiYti/oY4nF0+6HMCTg/RILCMhj9fGX6PRKCWpdAMgwKR0CcDnC54ggUcAFKb5k5m92izGazlogel7lgskqB6ApfBeC1oWTTl5yAgASHm62s6J60KhkJIgOnV1dZarQJwL0FsD+Fkngb8TjYW/GI1GP9Sjk0ajUWufebrK60tSFwPA651zKLF8DED6IW8Jo0zT7GVSSY05bo6iAQiZwbUHix8PHQEAfFrhtXeP3FX0F5WVHQqFtlpMZ6LXfNyfeBXfg5C+SDzyB+gjfhqNJgtIVusBGNnpUiIAvF7vRIHkcgCTBix6WKTeCAh6dRhIvtPXLCw+yvECoKKiYiQyy0HdnxJ8+alXntqlurrr60NvAvTTfjwRDyesruOj0WgDNBqNJksQxHR118b7KrLvVVZWjiW4ngBw+OAMVuqNgMTcOByaXEB8xc4LKtkEOGLEiKMhFW4wZGrOVo1PnjLx1vWtG6sB7Lv+0sHE34vFdUpfzdCgoqLCPUaMOShRkDiIiD46nUMJShhkbHclXB86JeWqJq3p8DSFCd1tX/+fMWNGgdso/CuATw2+yDL1SYClzW1NNSXvQ10sF2coAML5DPyIbPI0qzHS0jhGpSecwe5sVXhdXZ3l9Qa/JiD/jY933L4tIc6Jx0L/GW5jTmVl5VjDGFEmJA4hYR3CEBMBnpjiq0mANjHxBoDWMxtt8fiza5DFwCLDkWBlsKTLkMcQYzYRH0Ogoxg8EaAJAMYmIUFsfOL1ZANIQiJZ2AXTG2gHsA7AOiK8yhKvkotfikQib0AvbznNBaDMA8D2nwAQ4w846CEwTsmw0H2FBG4EEMjzVp/csqhkJha32LLkoWiWzmVK+z1nN6VwPB56zfT6bwHohwz8bURnwcXDYaYUrAyWJFzSS4zZBMxixqzu0KMSEACD+rEJDOKe/0USpjewg4GXwdQgSP7bsIxQaFWoRY/kGbTRycGpluBTmPgUMD6dhDxYdBsHANTTOgOaJo4AcBSAo5jxGRDAFsH0BjYzEAbh0UTC/ZiObZHjdu9OmDNB2Q2EvR4A0xv4LRjVNlzqqBkzZhQ0NjZ2pTAMr4EpkPeNz6gC4GgBcCAU+qZAOMrrnVMejz+7Llt13t65+7qiolGvxGLhxfnar3w+3xjB4jMMzAHEnCTkkcR7+hzsaNIxBARAHGAQkoZkvzfwkiReZlj0j/Dz4Tf00J7GYGqaFZDifAJOS0Ie9nEDKWUCAV8E44sFrkTS9ASeJuJ7Ptj2wT9TDsbDqz3GAxhPSTqAXZ+My0sWHcBs9PnmsIGdRMkEAAhLdIXrw/0O7la7NR2GwjGW7TsB4PP4fwrgcpsu5x43bsIRQIpjf1I0gvLfScV9J0ZyggDAeMV1IIitb0JxqsS9aWho2A0g74x/MBgsSiTkZ4lpIZhP4+4ZILLk7SUGTiSmE6XAjaY38CqB/pDkrofq6+vbtan/GI9nzhQXWYsYuACSZ2SthXobNwgLGLRg/LiDNvk8/v+TSN5WX1//Qb63g8/nKxYQn5UsfAR8CuCjIVEAACwASNpnsAZAst+XoPvHABPeRTob5ASUHgGEtCcGgOmtOh/g6+x8NAPWzJQCgHISCyAHCoAPcbgAUC/DiPhyn893fywWa4RmMLOWI8gS3052yQsIGOuQ5d1ZDL7LIPeNpjdwJ5N1eywWaxvO7eQ/2X88C/E/QPIsVpNxLFMmEtH1Btw/NL2BW5msm2Ox2I58aoPKysqxLlG4kAgXgXEiA0Tq3pe0DC+TmK7ynZVCZOwBMD3m6QDfA5vdwdzLPgAGvUrDYpsK27bRUckxQO5P8tpDAbHrb/Mq5o3T5nwgM5iqU/zewOOQ4g0mfAvAWAc+5sEAfkJsvOf3VN0YDAZHD7d2CngDAdPnX86CGgD+Epxp/PdmdE+bvev3Vn0NStcAs4PX651oev03u43CViL8Ed2hZtWWi9MTAMSsMgaA1dm5rSnDCUYlIJaqmGRyLyGBy2ubPgSQ9xMGAm11tAdAEO/krAgxPrKjoOtBAGdC7y7v26B4Al4J/jmYg0NIIxcx8f8ku/hC01t17eQpE//ck68hb/F6g8cJtm6RQFBhmlelHgEG3+XzBs4DWZf0pN0eUixYsKBw+9adPyTQjwCMzOrN04y+x6QyCBC3NDQ0JAY/yfDNgBT/AmGUGgPY5/LHawCK83r+z9jkaA8AmNZnUQ6dYXoD12sT36vh/5TpDTwhCTEQBYdoMSYDfOf61o3P+3y+GfnYTh6P50DTG7hVQL40hNtp70E6QGz8x/QELh9S74s3ENi5bddrRHR91o0/AECmu/aucA/A4Nf/A4FAKbHxBIADFXpJ3unj01fyfUxngm1xcBSFApbZdsP82PRUVUPzEfNnzx9legM3ScKLAD6TJ8U6gdh4qceoUJ6USZjequ8Y5H4PwHfgfFf/QCgC4Xemt2rJ/NnzRzn5QYPBoMvn9f9cAs8ycFjOHkSmtQRAUJtobVDr/x6P50CZwBMAShQ+2yYY8gd9VEwdgI58HtsJ9KyjBYAF8Vb264TvN02zQpt+wOcLnLN7dMfbAK7KM4PykVHxeQPLgsHgwUO5IKZplpke/zMA3wrggDyes5y7e0xH3DTNMic+XWVl5dhkl/wHgX6c6/fFKDJW9/9++ybjo9M6ShiwB8Dj8YwwyPUICMcofK5tEPKz0Wi01+crrW15gVw4jIHLCXgGQCKv3iRgx6bRE+sdLQA6O3c2Qm1qxFSMgKS/+f3+ycPV8JumOd70BR4mxlLk+ToYAZ9PdsmXA57ArCHZVp5ADaT4bz64+9McuWZDinqntZfXO6fcbRS9AOA0BzzOh6FQaGu/fZ/cao8ADjANcHV1tWEI92KATIVPtZuJzkgn50rpAy2t5bUtvy+tbZlnFbgmArQQhCUAtubBe7T0hLsabBM1SgRAQ0PDbhBycDyPytmif1VWVo7FMMPnC54MKV6yKdrWUKFEEsJ+j79qqDzw/NnzR5m+wGIQFuf3rD8lxUx4zucLnuCEhwkEAtMEJ58D+EiHyNr0DK8llQoAFgMKAkTrWzbeCcZZCh+pi5i/EIutjAz0h9PuW7u1rLZ5adnilprSRMvBzMJPwM0EvDkE3x9LEH5l5wWVpQMm4NkcVdJxblHwyIIFCwoxPCDTG7iaWEYBxcFBnMkBTPSE3+v/otMfNBAIlO4e3REFowbDFAYOIpYrvN6qE3PdFjKJMEhtSt0Bkp7hVfzMzF1pewB8Xv//gnCxwsdJQNCXIvWRJzMeKOtglS9pipbWtvyotLblaBg0i4l/DOB5DIFTZMy4p7S25Z0hIQAk6KncmUQK7ti2817kz0axlFRUVIw0PYGlAG5A/q31D4QiBj3s9/rPc+oD+nzBk6WFFwAcB804A7zc7/cfk4ubV1ZWjpUWHoPazWqDGeLfS2t4Y4UCgLErHo9vTuerfm/VpT37JpTNeAl8QTS68lEVFy97sPm18sWtvyirbfG4WE5i8JcJVMeAEwNZvdcliq60+6LKBEBHx84VBOQwYQgtNL2BXyFP8fl8xSMLR4VAOFvbk+6+zKB7/B6/4048mJ6qhcTyOTAO0c30sSeALXoyWBnMthEml1H4ABizHTjDSzcGgDpPH2EN0ggx6Pf4z2TwH1RWB4EujcQjS7NR98VL2raU17Y+UFrbfLZIYBKz/BwDd4OwwQFdo50hzjl88bvbh4wAaGhoSDD47zmuuCtMb9X389D4H0lsrGLgRGj2xs1EdQFP4FPOaavAxSB+CECRbp79KEkY8p8ej2dE9trD/yMCPu9IUURpH79TJgAojRMAphkMMtFSqPU6/iASX/mnXLRDaV1Le/mStkfLa1u+Vra4ZTKzmMnAdQAakP2Y6buY+Izy2qYGFRcXKp9cMN3hgNfq16a36pJ8GTEDnsAsYmMlHOe+dAxjJOHxQCBQmusH8XurvkaMu1S/Z0MZAj5lCPcfs/fu0HVOrQtm0a/xDQaDRQAmK2yQ1f3VIaRcBkDZHisi+kk0Hv6NU9qlfElTY3lty7VltS0nSMM4lIHvZuWIIaOVgDnli1ufUWajVT5/uD78MoBI7scYvt3nC5wz1AdL/8n+4yXhWQCTtOnok8kyybXV1dU52xdheqsuY/Cd2vinNdBd0JM/QPF8BHcCcDu0Fqzt2zf3G3+/sxNTVfYp7iMNcCAQmCYFnoLC0ytE+F0ktvJGp3bVqQ+uW1Ne23JraW3LvAIjMZ5Zfo6AB2HzEUMC1VESs0trW15Q+lKof7mFExrTIMaDpll1xlAdI73e4EwW9DS6E+Vo+n+FzA1tG3Ky/GN6q74C8P8hzzeh2mt4+JZAIKBsc5vPF/gKAx4H10BLY2NjV78DtlB7BBAi9TJEMBg8WCZpueJ9LLdHYuHvDZU+e8iDG3eVL2l7tLS25YJNoydNZOJ5YP4NMOgj8EkC1Qlmb2lt89mldS3K02tnZYAyPf7nHBLwpIuYP2fHkZJs0nNkKQagFJqB0AkhK6PR6H+zZvzNYBBSPgl054jXDIjnovHwXNi8zhoMBouSXfJth78/z0Xj4Tn9j6WBb4Lwf8pkCFkz902xXlFRMXJE4ahnAJysUAA9GI1HLkSeJHVrWTSlRLIwwfIEgCoAHA7ChH3GhU4CNkggCuaIIfB4yeLWlmw+pysbN2Fh/IBYPo/cH1UrYKK/+nzBU2Kx0PNDY+bvnSiTeEYb/0FRCGncX11dXZGNLIJ+v/8YtuQybfwHzad9vsBFsVj4z3ZeNJGwLiSQ098fR8QAcLvd6/Yx/u4RhaP+rtT4E5a53MZFyKOMrj2GfGnPv48b+cKpB2AXilxIbiuta2nP9XNmRQDEYqGXTF/gj2B80wFtM5pYPuE/2T8n8nzk307uRAsWLCjcsW3XIwAOd9BjSQDrAdoAkh+CRQeADrA8GCQmAFwKwEGRGPnYtraN5wG4X+VdgicGD0la1r/gmOh+vI5AjRL8HhirCbQdoB0w0AELRUQ4QDKPI+LpDDqSgBlwwN4Swbi5srKybtWqVbYdeSKmy4aAzUgv+A5hurJ96IQNoVBo595/GVkw6k+sMJkYAU+NHjtq4fLly5PDQeFOu2/tVic9jytbN0okO3/sNgoXwBnR6saxoOUeT7Cqvj7k2JCQO7bvulWp8k7zMcAIgWiFYH7JEtarsVhsR99eiznlBhLHgWkeCKfmNLsaAGJcHwwG/xIKhZRkCauurjbWt25cClB5zsoIvM/AI0x4SkpXtL7+2dbBeDBkEvNBdBYBgZzIFuAgt1H4PXQfu8qYgCfglYDz80WkGQMATNNVnUSjfZ7B9Pp/zcCXFXba2IgdRV9YHl/eCU2uxo3s4fVWnSjAMThnJ26rcMEfDofXOK1hfL7AxcS4O0e338mgf4BQ29Gxc0VDQ2bJJ/we/0lM9GUwvgxCrtLCXqnqaJHP4/9pT/74bJMEYZlk3F1QIJ4NhUK2zaK6lzPomwC+iuwvaWzrSroPfeGFZzIOJGZ6/b8ByPGxQJiEJ51lSdMb2AZFHjYCFkfi4fMAwO+t+iGDb1YoeFaxsE7pbzKhySMB0D1YBq4kmxMaZNgT3yMD/kgkst4pT+T1Bo8TkPXIfvCY1cz8h6TsusdOF+xeRmUCkuJ7TPxdqE1nmootrgJRarcXwH+y38eCQsiiNw1AO4DbIeTvo9Fok8obBSoDh0uDfgvw6Vlur59H4+GrM24fb+CdLHmgJECvAmgG8YDXdrsS7kv7EzzBYPDgZJfcrLAM/xuNh39qegI1IDyk0D68anEiWF9f/wE0w0sAAIDPW/UggZ0Ut/01ixNVTuiQPev+LyK7bstmgK6ZPGXiA9nYLBcIBKbJJP0+20aFCefFYuHFdl0vGAwekOyy/pNF178F4H6XJa4JrQpldbdwz9HG27Io3DZ+uO39snSOxvXaPicGD0m6pVJhT8D7knGTu1DcFwqFtqi8V48nbZXCWfnFYNEEIR+HOq/PO66ECIReDDkhxO6wJydBSrZu23Ix5y5bYCpmGuRe7vP5xuT6QXZs23VdFo1/JxFd4yoQR0TjK+/NhvEHgHA4vCYaX3kGgS7rmc1mR+0ybA02k+ySN2fR+L8BIX3RePjibBt/AIjGV94rGD4ArVm65aTxYw/OKGRv0pVUnXb4GRh8dKw+/GvVxh8ApKBpil+QI0HyH6qMPwNrXZaYo43/MBcAjY2NXZIT1XBWTuaTiI1HekJt5oSAJ+AFcGU27kVAvcXiuEhs5fWqNsf1RyS+8g4JqgKwKWtV7AkeZcuM2DQr0b0+rtxxAeA3rgJxfDQaXZXLFyRcH36ZyZqbtQQpQmYUwpsFqRTST7d37loQiUQ2Z68FWPEGavqhwj06G0HWqbkQrxqHCQAAqK+v/0C48FkAGx1UH5+2uuRfgsGgK9s3rq6uNqTAHVAfK4GJ8OvdnbsccQIiHl/5osXCB6ApC7cjg6yv2NFWkOL2LLw/OwhcHY2Hr8yVSNuXWCz2FsOaB2C78psxzQ2eGBx05DliUrL2T8D7ZPCiTDfHDrw8amMAKGQLkzU3Fou9pU2uFgAfzyjC4TUQ8jQwdjmlQhj4nNUl78t23Wxo3XRJFlKUdoDpnEgs/INsD159i8HQu0zW/Ox4AuizmV5hfcvGbwA4XvGDtjBZnkg88jenDRqxWKyRCdlIsEWW2zo1g3dZzeY/4puzO/P/6MbTMfTYziQW7BtdUKMFAAAgGo02EPE5ABwTCIKBRaY38Ids3c80zfEMVn2M7AMIcUq0fmWdEztiLBZ7i0l8HkCX4lvN8HjmTBnsjysrK8eCcIPiZ1wtXAg4edCMxcJ/AVh5ulamwQs2UhVAS+ChHA1MQ00A7BbAGbFY6CVtarUA6JVIPPI4M77lsLq5zOf1/zwr77Vl/BRqk/xsYxKfiUZDUSd3xlgs9DwYP1Q9jTK6vQ2Dwm0UfhvAeIWD/BqLXQEnxqbYf/TgqwCo3fzGOGUwS3LzZ88fBShJXPN2Lo4MB4NBF2hIpQDvYqIvhePhsDazWgD0P/jXh+8komucVDkE+rHf5/+ByntUVs6dRMTfUHiLdpJ82lBR4dH68O8BPKf4NoMSAMFgcDSAy9X1N7xvQXx2MFH8ctJW0eiHgPJ39oBEInHkgKeeY3cfBiXHnLkhF3WdTCbL4NxUxvtiEXhRLLZyuTaxWgCk7wmIrbwewK1OeiZmutnnC5yj6voukbwC6s5WMxO+Enk+EhtCfZKZrEsBdCq8Q+WgBuFO+S0AExQ9VYKFONPJoalT9t8CugvpxrEfrDCSxrED/w0pyp9Bb+dkMmLRUNkAKMG4IBKP/FWbVy0ABj6riIe/D8bDTnIEEONeny9o+5nik06aexARX6rMzoF/0b1WO7To2S38Z3UtivIeF3HaeDyeESB8X90j0dVOX6JJRSgUSjKz0v0yDDpuEL85VNHDrM5JRYshcQKACfSNaH24VptWLQAGrSA/3P7++QCedNAzjSCWj2SyeSwVBa7ENwCMVjRQrXIXGNcM2Y7pwk0KvQBi15iuowfyA4MKvqRw9v90JL7y10O1rZKy6x4AymK6k5CzBtH/1XgADJEbASCF4zcAMvMNkfjKP0GjBUAmNDY2djFZ1QA1OOixil2UrFuwYEGhbXXPuFjRs7YLifPtTA6TbcLhcDNAyxSOqDMGZk9YVdCf3S4pLsEQzoW+atWq7SCoayumgQtvUnMEkDmRGwFA7HgBQOSotOWaoSoAACAWi+1wFdCpcFC0QAY8O7btsuVkgHlycA5ImVvvl+FV4XeGeueU4HvVjadI2wNgmuYRBPjV2Db+39DzobVDva2IWeWy3aRB/EaFAOiIxWK5CmM7BI4A0kKV+6U0w0gAAEAoFNrissQpyE6UuHT5XsAbmJPxqyKkohklr7M4cXM+dM54PLwCyo6ZcXH6SkRcBDWJs1Zv3frBb/KhrT7Y9sHTAHYquvzB1dXVaUfIrKioGAmgWMFzrEGOPDWMoREFkBi3271UqhmmAgAAQqtCLUzWZwl43yl1JsH3DHQT2d4Eg8HRDHxe0ePdWF9f354n/VMS8IyaEZXSjbtAABYpGi5vziTbnZNobGzsIiCu6p3bsGHDgel+eaRrpJIjgNQtALJOT5Kyg4dIVzhQULJ2KNgWzRBppFgs1gjmzyqcYQx0KChvH9N51WB/nezkUwCoSDrUOmbcyPvzqYMySE0gEUpvQ5+/0j8LUBCAhbDBVUAP5FdbQVnQF6PDSNsDIF1qcgDk6gQA0dAKAUxAwOcJfB8aLQDsIlIfeQEsqgE4IoY9M//QNM2ywb0h8gw1k1q+bfny5Z351EGZ6N+KLj02rfsbtEBJuSTf7pQEP3YhgRcd8iDTFfXF3ERntIwhlwOACDd6vVUnahOrBYBtROtDTxD4Ajhjx3QhJF09uDrPPCFNKscCIO/Ptw46akfBq0ram9OLqsaAirZiMnhxvrWVy4U3nGF81OyYJ5Y5OgEwJLMAugX4/p79GBotAGzyBMQjS5n4cmc8DV3o9c4pH8gvvN7gbAxuV3N/PBmLxdryrYM+9cpTu8BYp2BQ7fc457yKeeMI8NivPRCJRqOr862twuFwCxTFA+hyd8kBtK0Sg8kG58QDQMxDNQ3w0SMKR/1Km1ktAGwlFov8H4DrHKFyKfmNgVU4n6RmkkCP5G0vJVKRFa/fNeWOgqQHCuKvC+LH8rSlGCAlInTbtm1b038KocRgJhKJ3CwBEKYP4T5xmc8X+Jw2tVoA2Eo0Hr6WCL9zwJD31WAwOIANfYOLQ9/fRZNs/Ct/BQC/psBSpXFSQh6npMsQP5u/QwpvUnDRnQM4LUEAlyt4hi2rVq3aniNVNX1ov7642+/3T9bmVgsAW4nEwlcQkOtY9wcnk3zKAF4HFQLgraGSQW5wIyAfpGBQ2p2G5+FYBaXZOnny5P/k75BCKo7rfpjuFz2eOcVQc8ImV0s2BKBc4fWfzsIR6wkscQ/UxNLQDFcBAEDu7tx1PoCnc/oUFqd1pr/bU8BHKRgiXsjrXspk+zE8IuxK42ufUlCaV+vq6qw8Fmu2xzXgAQSDMgypaL2cciIAfD7fZKjLFgoAcUBpOvI97/Cpprfq29rkagFgKw0NDYmizoJqAK/mbtKDM9JRt1a7dQTSWHse+ADJL+Z5L51if53Rxr4+7969zPafJ2e8nddtRdxp/+uFrelPCdRsmCPOTRAgIrda9z9jdXfqXlqaBXX4S3+lf7Y2u1oA2MqKhhXbmKxTkbuQwRM9nmC/6Ueli45S0ogS7+R1L2UFgXgg1/f16Sj3qHIVYo0Ev5XX9h8kFFx0ffoGU9GROUKOYgBIpQKARXdsA1cBfRvARsWlKWRD1Ho8nhHQaAFgJ7FYrI0MXoABrBfaWpFC9ru2P5AENAMyZUKuzdcO6vP5igEcaPd1mfs2Kkw8UcmAK8W7ea3VCCPtrzNKe3+LZEUCIE9jAEhprAa6864wIQvHq3mGS7hv1KZXCwDbiUQir0OKswFkPQ0uMafh2lLjAejo6GjO3y5qnKyk41PfXhMpSEWsBkjiXchn2H4BQODWAXxXzRKAOzd7AIiVCoCO+vpn1388iQr/BYy/K+8ijMv9Xv9p2vxqAWA70edDK5j5BzmoynTCAqvwAHQ0NDTsztseKkmJAGDBfUatIwklx5ZcORCnWeYg+9sKAxG4KgxmcteuXS050VNqYwCsxT5RNl1J8U0AH6jXNXRPZeXcSdBoAWA3sfrI7xj0UFaVev9njwXAR9h/X+T1jJJISeAkOXL7yDf7qdgJKsojhZDIbxQsnYi0ggtVVFS4AahIRdvU0NCQqxwkyjwAlOJoY+jF0AYwvpeNfuIWiXuhjwZqAaCmdycvIyBr663cT375QCBQDgXHeVjBRjWn0JMG9SQFjfXmU6881Y9wYiUblYSU+ZwmlVQIAClFWh6AgoIxSjZugjgn7v8FCxYUAihWOGilLFe0PvwAA49kobcs8Pn8X9dmWAsA+70AsdgOMC9C1rIHUp9rn5alZv0fas8I59aasOtMJaKJqN+89cxCycxEKjnR4Az8fv8hsD8IzyfWqfsczISa9X9msTYX9bl9+/apKsfoPrMbknUZsrChmph+4/EEj4JGCwC7idRHXiDGnVm6XWE/05gjVd3XNM3xedmAzAvVdHoZy+EceVq+vm+WJaYqqLB1SDcbpFSTBRCUoxMAcKmOAbCmjwlUG4GuykIhRwqStTNmzCjQ5lgLAAXvEF8PYFsW7lTQd0XToQrvXZZvzeb3+yeAcIqCS7NhGSty59XIXwEgGPYLAJJpn79XFgMgR1EASZWg2YNh9VmuSHzl3QQ8pV4T41Pjxx14gzbHWgDY7wWIRDYDuC8Lt9rZTy+frm6goFl5N/m36CIALgW19UpoVagljRejQ0m5CMfm79umIAnPQCLwKXrHmCkvYwCkkd2QLbgugaIUz/sU9kq/xz9Xm2QtABQMuiILYS6xve9xTJ0HgEEn5FN7BYPB0QCuVFRbaaXilZCbFBXv2LzNjCbs9wDQQCLwMSkRAAUFlJsogGq9RWllN4zHn13HxD/ORu9hovtPOmnuQdAMfQEwf/b8UU4J+RiLhVZB+dlW+rDveuapCm8+J586ZbJTfgvAwUpayeKH05t8kSoBQFLS/PxU2gqWAHggWfiUuMx3hEKhLTmpT7UxANKu11gscjsD4SyUeEqBO/EnbZaHsACoqKhwm96qS3aP7nhHCNeXHTM0QXkSll5nCaZplqC/TYKZMTMQCOTF2rLP5xsDwhWKBtRXIqsir6TXY4QqAQCS+Gx+DidkuwBgwWvT+d68innjACjYDEurc1ihyiYNhAHlNpCGCxeCsxBzhHGW6QlcpE3z0BMA5PMFzhlZOOp1gO8EMJlYfAtOCfTAqhMF8Xu9f6Z4Ny9AlsXn5kWHlMYvlc3+wWkHh7II6iK/Ec7syXGQV9ZfxR4Ay7LSMlSd7k41S2w5igHQ4wo/QN1wNTBhEw6H14BwTZaK/3vTNI+AZmgIAJ+v6hTTW/UiMZYysFcKVZ5hmlWnO2J0ItvPJ+8rMHr1MDDLQ5UXkOmS6urqIR0UyOerOoUJqgKDtBtu4950v1xSMuEdAO2KnqWAYORVbnRFMQC21dfXp7d0JxS5ywe0BGEfbrel1qM3iOyG0Xj4FoCjWZCSoyDF4p7IjhqnCgCvt+pE0xtYQcxPAVyRsi0l/48TCipVqmkALKxVvX/I09W/M5i6oXXDWUO1I3o8ngOJ+T4o8hgxaPFA1nLr6uosAG8oFIzf6Il0mBeoiQEwECMlVAmA3GwAhFQcA2BQsQ0kk/wqFJ2Q2YcTRhaN/qk20Q4UAKZpHmH6Ag8L8CoAc/t+f+Dxe/xVuSxkMBh0EfAphbf4MBaLvdG7cRbTs1FOBt0QDAZdQ60TBoNBl4vcD0Jd2FNm0K0DFlWMVxUW+wBi45q8GUhYQRS+gcy+WVEUQJEbAaA6XgQbPKhyxWKxt4goK2f2mfknphkMajPtEAHg8/mKTV/gj5CiEYzqdGdrTPSTnM7+O+VJABTOtiiGvqKVKRqcUnCU1WVdOsT6ICW6+E8MhRvjGMvi8dBrA+43gl9SXPbv+nzBk4dKQ3k8ngMrKipGpjaUCmIADMBNzYrOzEsp8jEGQLK9vX3QKcQNN/0SwEtZqAUBKR/I20inQ0UA+Hy+MaY3cBWx8SYYX8fAA7ScEvAGArkqpEV0qdp3Ff/s5wtTs1VWBt04lE4EmL7AjQS+UKX+I8nXDapdiVVHQTOI+b5gMFjk9Hbyer0TDXI/OX369M7UM1b7TwAM0P2uwsvGhYVYm5MKZ4VHABnNmWQ3DIVCSbL4YgBdWaiJUrC4E5rsCwCPxzPC7/P/gNhYC+CmTGbRFnADcnAiwDTNMgKfrdLAdFmuXgVAz4xpYhaLPFomsKQnk5ijZ/6mN3ADGD9SfJuH0z76tw/RaPRtQPUmMD4y2cX3wsFBuYInBg8RcD0DYFzP3ohUIth2AcAi7Z3qAmrCYbeFQqGO3NS6wn1DlHmf7nmnfpElMVTt8wUWaXOdJQFQXV1t+HyBiw1yv81MvwRwoA2z5IDpCSzMcvkIUtyNfuL0Z9Y3EV216pmNvX0+cuTIqVkXPoTKHdt23Q6H5tpesGBBoekLPATgasW32g1hZZjQhJ/Mwgh3rt8TuNWJbeU/2X980m09D2BmX2fHGWT7EoCU6UXgUxhnIyfu/+7TPFSqsL/ZUi5XgfhfBl7OypDGuC14cnAqNEoFAJmeqrPWt258lRh3AzanLiX8Npvnn01v1fcAJQll9u6Yf+7H9ZErd/xFptd/k+Nmk8HgwTu27VwBRk0WbvfLaDSaUfwHCfpHViY5hG/5fVXXO6mtTG/V+Swoih7jzr2vyauIASDTd78rirNBudkA2Nr6fonSSYtN5QqFQkmGuAjZSbk+LmnIh4b6UWfHCoCAJ+A1vYGVIP47gKMV3W8SsfG3bLinTW/V+QD/SvFttrZ37fprny+birXR9EewH/q8/t/DIe5lny/w2WSX/C9AZhZu97bFiV9mepF4PLwC4HVZEQHMP/V7A0vnz54/Krft5Bvj9wTuAPgBACM+FrupXfKKYgCsT9v9bsm8OgJIZCk9NSRsLFc8HvoPCL/JSsUwfG0tG34MjX19wTTNY01P4F+SEAPgz8I9T96xbdfvodA97fdWXQqoX1clwt0NDQ27+5lF5HRDHoG+7fcGluVyJ21lZeVY0xO4mxiPQ91Rv0/MHgXwtfr6ejsC+UiA7s1WXTFwzu7RHc8HKgOH52TW76k6i9h4gwnfSFEVKQUAJUlFH189gE4+TVFj5CgMsOK4ITaXa8zYUdcC1JgdcUQ/83qrPNp02+UBkOIPICzI8n0v8Xmr7rH7zHowGBxt+gKLGXw7ANWuog4I/m0aA/rUXDcyA59jKf6dg3Sb5PMFznEbha+CcHEWVc8d4XjYvuQlQt6Lvo552s9MaeA/fl/Vz7KVUMvv8Z9kegOP9XgAp/QihVIaDiYFBotynwYYRm6OAKqOAWAUGraWa/ny5Z0Q1sUArCxUj0uAH6qsrByrzbcdAqB7rT8HM1O+MNkl/+HxeA6043oBb2BOsku+kKW1ZRDj7kgksj6NGfhUJzQ0AVOZaIXpCyw2TVN5YCKvNzDf9AZeIsZSqNmh3VtJG9s7dv3QzitGo9EmAuqy3GQjmfk6g9xvmp5AjaIAT9QdxjuwgolWATitTyHp6iV4DCkIdDWgIEBqBIBliTU5ellVCgAl2Q2j0egqZvp9lmpoutso+J023zYIgJ417K05uv9pBrnf8Hv95w32Aj6fb4bfG3hcAs9A3d6FfdltSHFzmqOTs87kM2ogxZs+b9W9Xm/ViXZeuqKiYqTf5/+q6Q28LIAnARyf5dLtZkqe0++yzGCqTcifAUjmoMXKQFic7JJNpjdwUyAQyHh3uM/nm2F6A9eaXv873WG8kY5n6MNoNJo65bVU4bIeULIaFe9YR339s+tz9I4qFOjqsht2dO28GsA7WVJJX/F7/XmRAC3HE0PA9AZuA3BZjh/kRQbdnbA6lq5atWp7X9+trKwcW2AUfIFB5wH4NLK/ye3aaDzcb3CZysrKsW6jcJvD+8CrAP4JIR+NRqMvYoCubp/PN0aw+AwTnQHGGVCSkjXtXnRRNL5S2Xq9z1v1IIHPy3F7JbvfFTwDIZ6xrM5X+kqY4/P5xjC7DxVgLyBNgALozcXfd902ROMrT0j1iekNhGH3/iEh/NFoqN/EM/Nnzx+1e3THDti/p+jNaDx8dC4a2PQGNgCYpOgd+Uc0vlJZzpCAJ+CVhEiWxuStEPLYTE/6DGdcACAYd0vKrQBg4ESAT3QbhbeY3sCLxHiVgTdBtOeISREgZxLoOAZmMZCr6GlN7Z270jpd4Ha7p2V15XhwzAIwC1L8xPQGtqD7XO8rADUSyzYC7WDJOy3DEELgALKsA5hEGcDHAnQsmGcz4Abn2rHBf4jFw0o36xkWXy8NnA2FR7TSeWcZ8ADwQMqrDXLD9AZ2AFgL4u54FEwjARpF4BJmHEQfdcKMbGRf7nDbZ6zMibRmqh2jOqYrMP6gHMUAmD97/qjd6FAYOEwqLVe4Phw3vYE/ZmlCeQCkeKi6uvrTvQWo0qQhAML14ZdNXyAGhs8BzzQSQBUTqj6SBnu9ljm2MyDwd9J1MZOkqTy0+sPB6I6bcArAYOqpb4MgIAEJMNFebeKY0j3nLjC+r/om4VXhd3we/01E9DOHtdsYALPANOsTkshek/xeqr8Gg8GiZJecbHN5OmKxWFru9+4NiAoOFOXoBMDO0V3ThMITUpyF2AYjdxb9cPfojlMBZCMJmn9968YrAdwMzYARe83Af6+ro1+TvjQSjzySttZmTNN1plyRvQIhvxgKhbKyPr91+wc/z9aRJyfBvZwdlx1yGux3965JV12qeseYKEcxABSnAVa4B2APT73y1C4BfC2LM4Qb/B7/SXowzEAAuN3i7wBadJX0amg2SCQuH9jL7IwTAPnbJHjX1SU+0+vmNAU0NjZ2ZfHIk4NGitSGg4WSM+urB/COqYoBkJsTAFJtDADDyk65wvHws2Dck6Vac4NocTAYHK1HxUEKgFAolCSiO3SV9DbRoAvi8fimARoo7QFQR4shxSmhF0Mbsn3jaDS6Ct3JsYbPC9BLXH6p4MgaDcj4kqIYAFZuYgCoEjQ9siZBibXZKktCdn4fQHM27sXAYcmE/LUeFgcpAAAgKbv+iNwdCXTuTJPp5lhs5dMD7pSU+yBAecoWITE/9Hxoba4eIBoP/wzA48Okvq3t2zen3mkt7Y8BMCD3O6uZMScSidx4ANQuG663KTpmWqxatWp76oiSyuru66anqloPj4MUAD3HiW7S1fIJnjykZOJPB9khtQCwn60Q8tTw8+E3cj0phpDnE/Buvlc4A82NjY1dvahj2w0wcdo71QlqRPaW/o4iK3QBKFwC4Kx7NWKx8L8Y9FAWZ2u3ZzPhXF4JAACwOPF76L0Ae3ijqLPgnMEcMTnppLkHAdDhKu2lRUL4o9FogxMeJhqNfmhBnAVgWz5Xel9pgEnFEUCD05p99yQhGpnN8mZBbpWra0jKybKG5K7LQcjWUt3BxMZ9cGgqdMcLgPr6+nYmXKGrBs3Chc+saFgxqMHd5UpO11Vo6zT0dQjpi8dDrznpseLx0GtM4lQAO/K36um9Pj623WXNnOZMNaHmmBnnaANg8MTgIQBGK2zInJSrvr7+Awa+nsVbnuLz+C+Hpn87leqPsVj4YdNbVQ3wl4ZpvWyyWMyPhkOD3sBCxNPAuoPZxEoY8qxs7vYfCLFY6HnTDH4WlnwChFH5Vvmil7PjwRODhyQh7TZYm2OxWFpiioWYruSkmchNDIAuN09TGT4vGzEAen9Hwv80fYE6MLKyRk9EN5mm+Vw0Gv3vQH4XCARKpZQT+57cuRpDoVCHaZplACb0iNa3U/XbysrKsW63+3AAcCVcG0OrQo7yrvfa3yQS3wSweRgamzYhEayvD72ZUQeU0B4Ae7irvXPXKU41/nuIRkNRAn8RwM688wDI1Iajy60kz0XaRooUJc1hibW5qGciHvIxAPo0nG5xGYBNWbpdISxRO9BsmlaSfwApXurrX0/sC5Al/mfP34iNlB4Ht1H40fUsl3ScV6JXARCPxzcx0TkAEsPH1vB7Eq6ALRvMSB8BzJCdTDgnGg9/vaGhYUj0wUh95Emy2Acgv2KT93IkzoA8NJdGSlmgLUF5mQZYSiOnAiAUCm0B43vZq1AcY5B7QJvaDaZ7wXQ2mM4m0J5wxi/t+RuYzu7kztZPmg3sAuOife1pdXW1AeBCMHY59dUWfbttVj6X1QbLIQTUS1jeePzZ92x6m7UHYNA6DKuYrBNisfDDQ+3RI6sir7gs4QPwn7x5N3rZPMYKUl0PJAYAsZyqory9xTzIAioFQO6yG+5FtD5cC8KyLN7y26bHPD3dL4frwy9H61fWRetX1rGwHu/u52jd87do/cq6fU+IMNESEKaZJwfn7P33trZN8wGUAFg6JAVAT4Pdxky35Ln1v3P0uFGfHmign36MmIKXmd7Kc9PfDuDKySWTfLFYbMiWNbQq1GJxwovu8NpDfSfIjkgksrmXPm6/ARYDSFajxssmDzhgRHNOapqVThrWAs5ITUaCvwkgW0t6BBJ/7tlgqQQDvATADhLyq/u058UANhLxo0NWAABArH7l9wH+bR4anB1gqonGwt9Yvnx5p10XDQaDLoDK7H5Yl0XzmPhS5GewpueEhWOj8fBv8iGzV319fXs0Hr6cmBcAWD90S9KHO1zYf2SNOD33e887NkVBgVvtHAsGaKrUeQA4l0cbP0kkElkPUDZPmk1MFlj3QtHRQCnkLgb9hYGz/H7/BKD7GDgBpwN8v/w4o+3QFAAAEI1HrgDw8zyY0fS8a3hKwjUrWr9yie0dQspSAG6bL9sRWhVqjcUif3QlxNEAP5gnhv9tMJ0djYfnhFeF38k3VROpjzwpkTyOQXc7ZQY2wFlp70tibL/IhSs9Q9Xzjrnst5O5MZTd68WkLoBNjk429G5PVt4LxvLs9WM61fRWXarOq2HdDaCALXE+ABS4kl8GUGixca+TX28xsEYLX82EhU7e1JAGbWB8ORIPfyYef3adkjskFSj57vSkDAChF0MbovHIBWB5BsDrhmQrEDaA8a32zl0zo/Ur65DHxOPxTbH4yq8JxgkAVg6hR08C4k+9a2jYLQCSQoi03O+WpSbRlsjRTHnjxo3FCiYNjvQAfNSGcH0NWfVm8m8CnsAsJYKmOz/IfwD+GgAC8ZcBrMz0NJmjBAAAxGLhv0gSJ4PwyhAbh3cC+F9XgTgyWh9+QK3YVLCWl2IjVrQ++lh75+5jiPj7WYy0lelA9DoYF48ZO2pqtD5821DZ4W8H4frwy9F4OEjMpwJ4xsGPugXAzS4pDo/Wh55I9YXgicFJAIpsvm9TummdSbKiNMC5MZRSinK17x2tdlonq69/tpWJ/yeLtyyShNpgMFik5vJ0L4CjTG/g+2DMJvDdTh+TBhV3Ih4PvdbesesEAD8CsNvhZdxOTL9wFYhp0Xj4p6FQSPk5bTXHk1JHR2toaNgdiUVusWRiOhjfhTPXmxNgPMqE06L14ZnR+vA9OVtndQCR+siT0Xh4nmAcD/CDDvGoJQj4F4HPdxWI0mg8/KO+ki1ZLqtMwTOkvQREQlGq7RzNlJmlUgEgidY48V2IxSJ3Ang6i7ecaSXkDWqsqfUggA5059P5MMnJvzl9LBr0GlrPzO3m4MnBvySF9WOALgBQ6KCyvcnEtwHy/mg8ltUwrQQFEcq47zW8nixfty5YsOCPO7ftPJ2ZvgzCqVDpVuyf55l4sdttLA2FQlug2c8jAOCCYDB4mdVlnclMNSDMBVCQpUfYAUaIiB7tTLr+/sILz7w/gJGjGUk629anGUAKXmY5VcWeLha5MpRcpjJ8/chO1xqHvgYMIb8BKf4NYFx2xBa+7/f4V0TqI0/aed1oNPqh3xv4GwOLGPxQNjMvZl0A7KFnlnCJxzPnOoMS3wfofPSER8w6hA3MXAcyamOx0PM57NP2LwEY6bnwembWfwPwN6/XO5HYqCGB08DkAzBCccG3ALSCIJ+UJJ+KxWJt2syn8Q51e6UeAvDQ/NnzR7WPajeZMAegIIDZsM/V3grGv0nQS7DkM0aRsSpdl/t+XoxIZD2AnO3diMYjFwC4IF/6gGDsZOIVagwe7RpsTpOstGU0utrv8c9n0LU92R2VTyRZ0C9N03wnGo2u7r3eOEnAagI2pvycsAXA6p5Z/x5Py53E7BEWPnL/E4ndYLlagj9wWt3bLjmDwaArkZDzBaOGgQUADlT4/AkCXgLRCkj5WKQ+8hIcsNPa9AY22S2CJMSsTBLhLFiwoHD79t1eYp4D4EQGjiSgPIM+sBXAf4nwMku8LEn8Ox4PvY6huNPdwVRXVxttbW2HCRazQOIIyfIQgpgMyEMAMQLgAmBP/gHaAcgdYNoB4i1EYi1LXkvgdV2y4LVVq57ZqGtUo9EoEwD7ClufL3g8sawC6ASAjwdwKABjEI6iXRB4j5leESRfYTJebG/f8UJDQ4Oj9iD4fL4xxIbducS5vXPXaLvL6vF4RhAVHimYp4FwALMcR0QH7JlxEpNk4p6ZA22S4FbD4BYpZXO6CVs0Go1GMzwFwH7MmDGj4KDRB5UnDUwzwBOZ6SDQ/i5OAn0giVuZRVNBAVpCodDWoVChpmkeCyn+Y/Nl10fj4WLdXTUajUZjF65s37CxsbEL3bt938nLGrWM6SCbNwASVuuuqtFoNBo7EboKbEZFOE9mLQA0Go1GowWAo+0/qwhQQloAaDQajUYLAId7AGw/Apir6GQajUaj0QJAk66xBhSk9NQeAI1Go9FoAeDs+T/sz5EupaEFgEaj0Wi0AHAqHs+cYtifIKWzvv7Z9bp2NRqNRqMFgFMrU1gK3P9YBx1dT6PRaDRaADgZViEA9AZAjUaj0WgB4GRIQRpgYi0ANBqNRqMFgMMVgIIgQA7N463RaDQaLQA0e2D7lwBYewA0Go1GowWA410A9gsAoT0AGo1Go9ECwLEEg8EiAJPtvm4iYWgBoNFoNBotAJyK7JDTYH965R0vvPDM+7p2NRqNRqMFgEOxDBUbAPX6v0aj0Wi0AHA4egOgRqPRaLQAGIYVSeW2X1N7ADQajUajBYCzkQqCADHrEwAajUaj0QLA0RBoqoLW0QJAo9FoNFoAOBu23QMgpfYAaDQajUYLAMfi8/nGADjQ7usWFGCtrl2NRqPRaAHg1EpMimkKLrs5FArt1LWr0Wg0Gi0AHIp0KVj/12mANRqNRqMFgLMhtl8AMOh1XbMajUajUYVLV4ENHgAYjwi21g9KPJAcxRAFnzD+xJ3MieW6ZjUajUajiv8HxKVSsR3oL0kAAAAldEVYdGRhdGU6Y3JlYXRlADIwMjQtMDctMDdUMTc6MDY6MzgrMDA6MDC3+FghAAAAJXRFWHRkYXRlOm1vZGlmeQAyMDI0LTA3LTA3VDE3OjA2OjM4KzAwOjAwxqXgnQAAAABJRU5ErkJggg==;fontStyle=1;fontFamily=Verdana;fontSize=15;" parent="MzRNL4-QLkqZmelXcO3N-16" vertex="1">
          <mxGeometry x="50" y="183" width="121.27" height="63" as="geometry" />
        </mxCell>
        <mxCell id="MzRNL4-QLkqZmelXcO3N-13" value="" style="image;aspect=fixed;html=1;points=[];align=center;fontSize=15;image=img/lib/azure2/databases/SQL_Database.svg;fontStyle=1;fontFamily=Verdana;" parent="MzRNL4-QLkqZmelXcO3N-16" vertex="1">
          <mxGeometry x="296" y="188" width="48" height="64" as="geometry" />
        </mxCell>
        <mxCell id="MzRNL4-QLkqZmelXcO3N-14" value="" style="image;aspect=fixed;html=1;points=[];align=center;fontSize=15;image=img/lib/azure2/general/Dashboard2.svg;fontStyle=1;fontFamily=Verdana;" parent="MzRNL4-QLkqZmelXcO3N-16" vertex="1">
          <mxGeometry x="490" y="196.5" width="68" height="48" as="geometry" />
        </mxCell>
        <mxCell id="MzRNL4-QLkqZmelXcO3N-19" value="" style="endArrow=classic;html=1;rounded=0;entryX=0.846;entryY=-0.029;entryDx=0;entryDy=0;entryPerimeter=0;dashed=1;fontFamily=Verdana;fontSize=15;" parent="MzRNL4-QLkqZmelXcO3N-16" source="MzRNL4-QLkqZmelXcO3N-10" target="MzRNL4-QLkqZmelXcO3N-12" edge="1">
          <mxGeometry width="50" height="50" relative="1" as="geometry">
            <mxPoint x="800" y="142.5" as="sourcePoint" />
            <mxPoint x="850" y="92.5" as="targetPoint" />
          </mxGeometry>
        </mxCell>
        <mxCell id="MzRNL4-QLkqZmelXcO3N-20" value="" style="endArrow=classic;html=1;rounded=0;exitX=0.532;exitY=0.932;exitDx=0;exitDy=0;exitPerimeter=0;dashed=1;fontFamily=Verdana;fontSize=15;" parent="MzRNL4-QLkqZmelXcO3N-16" source="MzRNL4-QLkqZmelXcO3N-10" target="MzRNL4-QLkqZmelXcO3N-13" edge="1">
          <mxGeometry width="50" height="50" relative="1" as="geometry">
            <mxPoint x="299" y="90" as="sourcePoint" />
            <mxPoint x="163" y="191" as="targetPoint" />
          </mxGeometry>
        </mxCell>
        <mxCell id="MzRNL4-QLkqZmelXcO3N-21" value="" style="endArrow=classic;html=1;rounded=0;dashed=1;fontFamily=Verdana;fontSize=15;" parent="MzRNL4-QLkqZmelXcO3N-16" source="MzRNL4-QLkqZmelXcO3N-10" target="MzRNL4-QLkqZmelXcO3N-14" edge="1">
          <mxGeometry width="50" height="50" relative="1" as="geometry">
            <mxPoint x="332" y="96" as="sourcePoint" />
            <mxPoint x="330" y="198" as="targetPoint" />
          </mxGeometry>
        </mxCell>
        <mxCell id="aiPGaI7tTqKj_MKPzglg-1" value="&lt;div&gt;Transformation&lt;/div&gt;" style="text;html=1;align=center;verticalAlign=middle;resizable=0;points=[];autosize=1;strokeColor=none;fillColor=none;fontStyle=1;fontFamily=Verdana;fontSize=15;" vertex="1" parent="MzRNL4-QLkqZmelXcO3N-16">
          <mxGeometry x="36.26999999999998" y="257" width="140" height="30" as="geometry" />
        </mxCell>
        <mxCell id="aiPGaI7tTqKj_MKPzglg-2" value="&lt;div&gt;SQL Analytics&lt;/div&gt;" style="text;html=1;align=center;verticalAlign=middle;resizable=0;points=[];autosize=1;strokeColor=none;fillColor=none;fontStyle=1;fontFamily=Verdana;fontSize=15;" vertex="1" parent="MzRNL4-QLkqZmelXcO3N-16">
          <mxGeometry x="260" y="267" width="130" height="30" as="geometry" />
        </mxCell>
        <mxCell id="aiPGaI7tTqKj_MKPzglg-3" value="&lt;div&gt;Data Visualization&lt;/div&gt;" style="text;html=1;align=center;verticalAlign=middle;resizable=0;points=[];autosize=1;strokeColor=none;fillColor=none;fontStyle=1;fontFamily=Verdana;fontSize=15;" vertex="1" parent="MzRNL4-QLkqZmelXcO3N-16">
          <mxGeometry x="445" y="257" width="160" height="30" as="geometry" />
        </mxCell>
        <mxCell id="aiPGaI7tTqKj_MKPzglg-4" value="&lt;div&gt;Databricks&lt;/div&gt;" style="text;html=1;align=center;verticalAlign=middle;resizable=0;points=[];autosize=1;strokeColor=none;fillColor=none;fontStyle=1;fontFamily=Verdana;fontSize=15;" vertex="1" parent="MzRNL4-QLkqZmelXcO3N-16">
          <mxGeometry x="266.4" y="12.5" width="100" height="30" as="geometry" />
        </mxCell>
        <mxCell id="MzRNL4-QLkqZmelXcO3N-17" value="Amazon S3" style="sketch=0;outlineConnect=0;fontColor=#232F3E;gradientColor=none;strokeColor=#ffffff;fillColor=#232F3E;dashed=0;verticalLabelPosition=middle;verticalAlign=bottom;align=center;html=1;whiteSpace=wrap;fontSize=15;fontStyle=1;spacing=3;shape=mxgraph.aws4.productIcon;prIcon=mxgraph.aws4.s3;fontFamily=Verdana;" parent="1" vertex="1">
          <mxGeometry x="-10" y="380" width="80" height="100" as="geometry" />
        </mxCell>
        <mxCell id="MzRNL4-QLkqZmelXcO3N-18" value="" style="shape=image;verticalLabelPosition=bottom;labelBackgroundColor=default;verticalAlign=top;aspect=fixed;imageAspect=0;image=data:image/png,iVBORw0KGgoAAAANSUhEUgAAAUAAAAB8CAYAAAAYX2nIAAAABGdBTUEAALGPC/xhBQAAACBjSFJNAAB6JgAAgIQAAPoAAACA6AAAdTAAAOpgAAA6mAAAF3CculE8AAAABmJLR0QAAAAAAAD5Q7t/AAAACXBIWXMAACxLAAAsSwGlPZapAAAAB3RJTUUH6AsGDCoThrcpEAAAOL1JREFUeNrtnXeAHHX5/1/P7O715JK7FEpCLgktITEQWhK6kqBAducEUVC/KAiIKDYQMCAqRFAERQVDUVH4SSjhZg8CSELoCUhTEkBaEkiA9FzK1d2d5/fHZy63t7fXy+7CvHXNuTvzmZlPec/zPJ+nCMDaaWOLFB0JIJAAEiokQFyBhKomgIRAXEUSAq7ruu5eL7zv4iP7sXR5MVDHjMnqd4YPHy2QNdMr8kB+geqXkgjQVZE4EBeIqWoMiAFNiDQINKhqvUCditSiuhPYjsgOVLcD23b9LexAqQXqgYbRz6+O+90+QPj360JCT0P1bOB2Yon7OOZAnwR9+PAQRAkgur+IjG/FjN6/CohIW+ZM+k5EQNUcC65CHGgCGgTqFLYDNcCmNdMqNgAfC3wIfKTwMbBRoEaFutHLVif8YekT8rNI6GnAjYiMQHUTIvd7Q+rDhw8gmMhLNARigZ+r6u7A4alkJ52JkC0saP4WsQTygDxESryf2kIVI1FSi7IVWAfywZrpFe8BbwHvorIWdNPo51fX+0PVDbz4uhDXU4EbUUZ4g5TA9S0WPnyk5a810yomAreIyJGZvik1/92JynrQlcAKhP8ILAfeH7Vs9VZ/6DrA0uU2wp9R2a1FlNc72BE/ixMO8iVAHz7SCXhrplXsD9yWDSSYhhRdQbcAKxV5WdBnQV4GfX/UstUN/lDuIr+TgHkgo1qNrupfeGLbOcw50idAHz7a03DXTKvYD5gnyLGd6r+ZI8PmzZqPQV8FFgFPAu98qslw2fKTgJtB9krTa/OYPvl8f8r78NEBAXokOB64GZFZkhOPoWBsiM8DUWDxqGWr1n7KyO8E4BaQMe0c8UemT7rQn/I+fHRCgB4JVnjSxBckB1hQWx4mAbwNOMC9Asv3XLbqk72zvGzFscBfgHEdHHU90ydd5E95Hz5aYLX3w+jnV68Gzkf04Rxj8gAwQdHLgIUKN66dPnbqh9PHWp9Q8jsauAXtkPxAtdGf7j58dJEAPRJ8H/i2oo5qbtnOPaecPYALgIcUrl07fey4Txj5HQXcCuzbob3WjJ1PgD58dIcAAUYvW70G5TvAfblGgknq8e7AxUB07fSxZ66dPrYw50du6fJpoLcA+3XxDH+n3IeP7hKgJwl+DHwPuCcXSTBJOJqkMA+4ae30irE5TH4HA/NQmdCNDvAJ0IePnhCgR4Lrge8D/9RcFQUNFxQA31SV+Wunjz0q99Te5VMRbkNkStfdlARMLLYPHz56QoApJHiHquZ0XJUIhyn8Y+20sfbqCcNyw9tn2fIDgdtADuqeDUDVJ0AfPnpJgB4JbgJ+DPxFldwOLlWtQJgXKi/9Sv35dnbvEi9bMRHkFpCpPTjbBer86e7DRy8J0CPBrcAliN6uxu8uR6VAQVVHquqNO99ffbpWXZudJLhsxf4YV5fDeqj3J3wC9OGjjwiwFQmi81Q1Z3P8CaAJd3i8vuF3ddHFX9NbL80uEly2Yj+Mq8uRPQ5NVOI+Afrw0YcECDB62eoalMuAG72kqbkoBgIQr28Y3rh12+/c/717tl7+tUB2kN/yvYFbgN5u1jQBtf509+GjDwnQkwR3AFfmMgk250Cs37K1rGn7zutoip+rF58WzOhNLV1egXIT6DF90FqTLwH68NEPBOiRYC3wc+AGVW3KVRJ0Y3Hq1m8s1UTiWpDMkeDS5WOAm4BZ9E1Knnr8XWAfPvqHAJNI8JfAtaqas063DTXbiNXWDQauBS7Qi0/LG2C1dzTCzQgn0ndZKOp8AvThox8J0CPBOuAaYK6q5uSCc2NxGrbUoDAImAv8QC8+LX9gyG/F7sAfgRPp22SMO/AjQXz46F8C9EiwAbgOYa6SWyTYbAts3LYdTSQAKcbYN3/U7yS4bMVI4EZUIvR9Jtpt+MkQOkSlHc6vtMODK+1wyO+NTw/6LQJizfSKfOAHKJeLVxwpF6CqBPJCDJu0P6HiouZv64G5KNfLb+/te0nKkN/vgS/3y5io3otwBtMn96nPpm1HCkHPAw4warbc4jjRN3JtEdh2pEDgWtDDFRYo7g1R5yG/gpQvAfZCEly2ulGVG4DLVXVHrqnB8fpknpNC4HLgp3rRaUV9S37LhwE3AF/pxxfSJpB+WNB6sMAvBfmWIBeCnmdHwrmYd7FA4WiQacAR/bkufHxKCBBgr+dXxzC7mT/NFRIUTwpsTYAAUgBcgnCFXvzl4j652NLXhqL8BvT0fhRpDQFOn9SnCSxsO2wBNsZW2ozPI+yZo2uhWTr2JT+fAPtQEnx+dRyTgupSVd2W/QzoOUY3NrWtIC6SB/Ij4Aq9+LTekeDS5UNAfg2cCf1edGB9P7S5G/AFEBTe9ey944HPdpdIbXt2l+dh2D5RbHt24Av2iV3us4g9W2x7dped29UroByxT+7WeeZ5ZlvdPcdHZgWeAcEH0yoCAt8Efi0iZdncKeoqhcPLKNt/byQ9N8VA/wD8Qq67t/uS7bLlQ4BfA98C6d+XkGoC+DIzJi/oYwnwDOAOQVw1WbfPEpihaBT4iuNUN6QcXwicKjBS4UFBCkBnK+yPKWOwSuBRYGmVUx1Pc729gZOAKUAJZmd7hcDDVU71W+3c4wSBL2DyQJYANcCrwKOOU72q5bjIEGCRwCGK3g9cBJwscLB33kcCi1EWV0Wr29iAv2hHLEWnqrlW8/OsAR4X5amqaLXvgvRpJ0CANYdVWFh8DbheRIZlLQGqUjB0COUT90Gs9vhJ45gwtcvluntrui75rRiE6DXAt0ECA/AwtcAXmDH5mT4kv3zgLkFO9QhlpsJ5wFzQTcAJjlP9SutzIhXA06CjgScFGQukVLDTzSDXAH+ocqIxgEo7bIHYwNWKThBAESN3GvxPke87TvSx5i8q7UgAOB3050YqlSTpThFYgbHpPljlVLspBPg6xmfyEGldWLkWuA24osqp3pn0XHkC3wG9RGG35mtJyzn/BJlT5UQ3+nTzKVSBW6nD/17tAncBP1KzULJXClQXOrSaSdCQGNfoxacN6Zrkt6IY4eeonDcg5GewE+jrvt4fONojlIVVTnQz8AiwERgGnByxw5LmZSuCIMixCuUKDyj6G0XvUnQjSDlwhaKfayEsJoDeAEwwZMcVoN9Q5BeKrATZH/Qa2w7vnnSto4AbQMYrfKzo7QpXKtwJshVkEvBHhaltJQI5AGQyyCOKXuedu9pzibpA4esRe7YkPdQphpzZDWQJ6IXAuQr3KBICOUfRS2zfvcYnQM8m6CL8P+D7iq7P3q7pinAsAeAc4Nd60WlDOyU/41P4PYSBDLHbAmztq8ZOtr8kwEkCIxTdAjzo/fQm8JwnNc0WKEtrXjP/Uwf8BDjDcaovAb4Jcq6aey0FzvakTATGK5Qq+ibwDcepvtpxqv/uONGfA3PUxDl/BpjuSachRc8Bhnvz6yxFznOc6C+Bs4CL1DiFjwa+Zhui1iQJsQn0F8CXHKf6JwrnAmcorAQJAf8nSKl3rTJMqYhikEXAVx2n+o+OE70NOBuTxQfgTO8efXzaCRBg9LLVrorejXKBqn6UlfRnSRcNBBIA+RZwg1502vB2bH5FwBUYv8iBlgQ2ANv7qrEgjUOBsNc5z2PUSRwn2gBUKcSBScCMDuTrZaD/cJxoozm3Og48BCz2DjgYGGkISZ4AZgERx6l+wRDPSWJsivohUCcQ9AgNkBHAod7fi0AWRZ2o691jHLgHeECR1UACNHWU3wC5zXGitQBRp1odJ7oMcIzyzT4Ce3nHHqDoZxRNgN7uONF1zY1459/skfAwep/Rx0c/IGMZT/Za+r6+vH/hAyOGjIyr6k0ikj3uE4qx/XV9c9YCzkTI04u//EO57p4Nu3557rUClEsR/SEqIQY++f5a+jYM7nBPmkmALHCcaHKWmcXAO4JMUNS27fAjTpoNDeAVx6lulZ7LcaJx2w6/qnAaRnocAXzgONEdwIuVdngP2w5XApMEKtSQUAXoYE98azYplIEMVSPUveE41YmU69TaduQCYLAgNS4rVRifPCrvg5vGW0HfU+MkVQAM9r4cb6Q/GoFJlXYkv/U00kFA3FgsdZ+wPUuqncfUpx2fAM1r/n/1+sSw1dV7712hqvonERmtgKiaKdNsShYZWN4QsELB7nmnmO3i0wHxSHA9S1/LB7kIuBgkb8DJzyy1VcyY3Ce+bbYdDgC2IIUYm12NbUemJtkLBHjbs9d9DhgLvJPGztaeROqp6hICCgEq7UgJRqU9B9gPxDKPpfWkz3EY8j608zuOE63B7Ah7zzU++ee4kq7ol8STntHTnGSQ90W+whXajhnF+77EpxufANvguE0om1ZXr5lWEUP1JkvdsU3BfHbmD8LSBCWNO8lLNOGKhSIDRoaBUI+ENQG+gmrgX7+55LITrMCXcd2fIlKQOVmWlX3Y3hhgpveo5cDfSNkqEmiWgkZ7x77T9qa0vQ2g5nNdIOYR7sUgP/UkvGXAIqOmsgYYitlUS7K/qkuLM3NP5nd3hr3Je54YEAVZ14FO8S+fbnwCbBejn1/9yIZD9vjW0nFH/u3uQ76619vD9yXkxhi7eSVHvfs0R6x8hpE71uNi9SsJNlf8DOT3OAuWgJ42vKl+0rCG2opN+UUZLMKu9cCqPmxwlrS4rsSSyC6VdF1BLE8N/oeT5DbSbAGx7bDlONW7JNMZ9qECMtbbkdiJ2RAZo+g3BYIKfwG51HGim1okt8ixRvpqxcE7jV1Qhiq6R+rNeS4yZ3pxv0+A3kMn+/0d9O86jM0T4C7HiUZ9SvEJsMfY66oPG4ubGty6vBaB6bU9J/PIxJPYb/3/OOOluzjxjYcY1LDDSIT9RIRiWQTye5P8RZi0fcPEyEdv8ZdxUyFjZZRlC+iaPlJ/iwHbqKD6FnCxIDvaEXdOF7N7ehhwIPBsyiGfw9gR/9P8xQh23wt0pheMuBL4CJNkYajXe88lk1+lHQlhXFBSY7PXe1LvngLHVtrh3auc6o+TpM9JwFWC7AFaDNzbi/59A/hY0NEKp1RGwo9URaubku5xqqLne+vsd45T/ZpPOT4BpkXxQvcIlNsaQgUVlibpIS4krCAr9pjEz0+8iqf2OY7vPfV7Jqx7o9+kQSsY7I0ECCKEEnGmbFufQfID0LUY37y+wBTMBggg1Y4TfbB9sozUqon6KFMI2/bs51JE5DHAnyvt8O8VVgqMBDkPmKhGXXzAcaI7bTu8DlgnyN6g51TakQ8V3hazCfFlTGRRaufvBO5TmCHIQaB/tO3wLaYdxnihjHsY9xlZ6BhH6J5OoVWYHeXvC3oKwspKO3w3SAPoQcCVghyosB30Np9usg9ZkfWiZKEejvGZmiCpRhjPGyXgQjwQ4l8TTuDCU2/i0QknGvJTpa8pJpCfRyCvt94qQmMgAGS05vrbnkrYK3iOvxGBIYruMPauDrHC2OsE4GTPNSXJ1042K3I4cLfA48ADwMnee28hcKfXh2tA/qhQCzIdcASeBp4Afqpok3FBabHdOU5UjV1Q7zYXlFOAauBJYAFwnCE/vQU0mcQDnawJSTqu+Vpx4HfAYkWKMH6eT2Lu8R7gQOPbqFeCvOjTjU+AbSW/h3WqCvNEZKJ0YlkTIKCwctg4Lp/9K/55yNdJWIE+J8FgUQES6EWghioJy2LF4BGZ4z8jea7omx1gEZA6kFcE+Qcm/K1dOE60XuAvwL+B9zG2wuQh+jvwY4VXFOoV2abwOvBb4DuOE93gteNiwg3PVXSJQo2ixYrWeFEdXxPEEXgR+F/S9beCfB/0YkWXetEfosgGhSXA+SA/TbJNNgBLQV8BXiB9Rpj3QP8N8rSnnjdf631PEp2r8B+FgKIlCh8oOh/4Cip/crzQPh/ZhYyKJyUP64EKt4txfO3G4gZXoChWy/nP3MxZy24jlIj1Wh1u3gAZMm4MJXvu1ouGXFYXDWXmUV/j3ZJyQDNBgI2AzYzJj/ZFc56PWxFQV+U5MHdyvIVJleV6mxoVwFNidoevqHKiV9t2uBwY4SWE2JRANjzoONqOWl0CurtHpttA1jlONFZpR4pBQ4rscJxoIo3tstRcgwJD4qx3nOjONMcVChQoUus40aY0vweAEpP8QXY6ae7TtsPDgOGelFgDst4nPp8A27P5TUG4XZBDerbADQnmxxv43lN/4OxltxJwE70iQVXFCgQoP2A/8ksH9ULyUn6/9zR+/JlZuJKhLlZdg3Ac0ye/lw0TzbYjY5MI8GdVTvQqf/n5+FSqwMULdSJwC9pD8vOo21JoDBZw89EXcPfBX+0Tm2CgIJ9gYW/c9pRVxUO5fexBuGJlcgf4bZSPs+xlK9mgefjwkTECLH5Y9wXmicjhvRaOPBKsCxXzh2N/yKMTTjRRJL0gnbySYhMF0kPpr8kK8Pu9D+f1wZ7dPxMSoEk58BKSVaUwY6A7FG1UdKe/9HxkAwbUDcYjv1uRPgwM90hwa9EQrjv+Enbb/jEHr3mJhAS6JWaoKiJCXumg9pKgdkn1fWDPifyt4qCW7zKiAmsMeJ7pk7Mm7lTQjxW+gYna+K+/9Hxki1oyIChZqOMVbkM4rl8uqpCw4OAPXuZ3D1zIHjUf4lpWlx9QVQnk55lqcD0J3nBdXigfxRmHfZGVxWUmIitz9r/3gc8yY/JKf4r78JFhFbh4oTtG0ZuEfiK/JEnwlb2mctPRF9IQKui2PTCvpJhgQQ8iQFyXtwYP48Ipn888+Rm8iskC48OHj0wSYMnDOhq4CeGE/pY3RUFUiE6OEP3MF7tsD2xWfwuGDukgBX57J7usKhnKdw/8Av8uG0XG7H4tkrACTzBjcpM/vX34yCABFj+soxRuFpGTBiSHixgSbAwVMO/I83l990lY6nZJCrTyQuR1x/VFFdTlnZJyzjvoZBaPGE9G/P3a9sEmRJ7yp7YPHxkkwOKF7u6o/hE4eYAJAMuFNUNHM++oC9iZX9IlVTh/8KCuu7+ogir/Kd2Nbx4cZtHIZvLLAgJUXsKEwPnw4aMT9MsucPFCdwTwOzGFszMhBWEpLNn3szw0KcxXXv4nLukzPKsqYgkF5UPN7m9nO7cemT4+chw//MwJrCgdmUR+GXZvM6EsDzN9sl+GMUth2+HhwL4Ce5tCShTREocMpgTn/CqneguYCBxFbUyZAcH4/78IPFKVPtu2j0wSYPHD2kx+p7Valy6QUNQ1fzeHnYmIkUMtQQLmb+kDG5ooNAbzuWPa2UxbvYwxm1fhtuMaEywsbIn86IT8Gq0Afx8zhV9MOIaPCgcnSX1Z4NsrrAUe+1QQSSQiIjpOkXFJmowK+gHwdlVSrsFsQKUdGQ/6fwqzgb0xYXWSqpuICR2Ms6ugkk4RZJ6iQ5IO+1BNstk3fQrLIgIsWajDgBuA0zWu4tYncHfGcWsTuA0uGnM9EkxZtxYQECQoSJ6FlW8hhQGsQgvJDyAhMUWKeiAFvjt8PHcd+n9c+thcrNTdWY+EC8qGYOXldaryflQ4iGv3O5Lbxx5EfSAvG3Z7k1VfgMcQMub68iX7NInRMApkVIp5JSboyiqnuu/Kc4ruqfBPTJouSeqF1Yp8mSzxNYzYtljo54Ffg0xuWytUUoZRLUzscvMRpUCRtK5tXEqrLNg+Mk6AJY/rUG3U32i9e0Z8S0wSW5pw61w07nZx7aZMDE8ylDwLq9DCKgmaT1EAyZPWUmI72qeoqeNVPdnmhDcf5dD3X2jlIK2Y1PeF5UPbl99UcYEnR4zl5xOP5ZlhXkGwbCI/87A7UeYzfXLG1KI4jYcJcpuaWiDJtXMTwLJKO3J2lRP9sI8eeCSwf2pWaoV9QPfOFgK00OMUbpFdVet69GrTLnznI1MEOPgpLY2tj/8qsSV2Znxjk7gNibZk1hNzVgK0PoFbn4AtMcQSJN/CKgkQKA0RGBxE8q3W0mEyGXpS4KbiMu487EwmffQa+fHGVsSVVzqIUHFRu1LfhoJi5o07hJvGH8qGgpJd32cV+ZnnfgZTMyNDKl44oOjZkkbK8QbjBEUjwM19Lvd2/l2m+mQE8Mv2yM/oQtKQcs/b8SNlcocAixbEShveqLsmsTV+TqI2bvWG9DokTQV1dRchJjbFkDzBKgkSGBoiUOqRYep5YnIIPrn3cSwddyTHv/UYcQmCKmJZFA0vN75/zaTmhbTFrACLR4zj1/sewdPD9kJFwPWkPsm6WP4GhL8yfXJtBjXwCtlVMKl9051th/+eWhKzp1MkB9bXiaDTaKvm7gB5APgXJrdgvOV5ZBumCLyPbCfAwDXbBjW8VXu1NrrnatxU+pL+IgdpbS9RNWH1bmMTiS0xJN8iUBokUOZJhkGrlSq8M7+I+QefweGrl1HUVIdiIj/yhwxuLfUBrw8ewR/HH8b80QewLa8we6W+lht/EiTTmx8zFfbqpIeaa4Q81wfXa8So1ukkwIzvglfakTzQk0ACKeTXAMwBbnGcat9ZPWcJcM6WYrc2cSXwbVUNyACTQ/L1VBVtSOA2JIhvbMIqDhAozyNYFkIKjFQYUHi+YjpLxx3F5958BLUCFI8oxwoGd0l9awpLuXPMZ7i94iBWFZeZtZS9Ul/z0+8A/sD0SdszdQfNBZPEbGd1hFIgbNvhpY5T3UtVVd8DrlU4lKRdYJDXQZ/PvEWCMpBJaWbNM8Df0iVd9ZEjBChztuQrXKqqFwJByTA5tCJDV0nsiJPYESf+sUVgaIjg8DyskiCNgQD3Dp/A2x8spyBgMbtgMAeqsj6/mPtGTeT2sVP5b+lITxvx7MyS5ZqWch/CkgzfRVLBpGR5WneKVzzcCPGCoicCv4fe5Sp0nOo64LqIPTsAumuQos5D2eIbNwKTHTpZ+gN4PE2ZUB+5QoAyZ7MFepYgP0YklG0P1EyGqorb6OKuayS+KYY1JI+9tj9F/M0neDk0GAVWbYiz/977s+AzR/LykN1ISADP2OgRX7abmfQdhOuZPrkxU3dg22GvYJIMSZGAPgK5Q+GilJ3a/YCjMUWDeo2o82AiS8emFJOGP/nLBOBn6Mki9CAUTo4FrkQozOYHE5FdH40r7sY6hr6xjFBTLZZAEGVdY4I/Fe3Jv8tHkxCLXQ6KkgP2ddV6lF9R1JRpg/luwIlpvn8W48zbKixPkBBQadvhvE/42gqmWV8J+qBKn48MEaDM2bwH6FWIjMyNx1NvX8P4FMYLLbMEdwVvCG5+0iZHrsCE0dwOzGfKwZm+8aM9qS6512Og0SINrgEeSXODxwD7+svPR86owDJncxC40KvPmvXEhwqKhYgLQ9cgey/lw6kfMLQqSPEGFxVh6+SDaDhsOvnBPGL1dbiJRAsRZu+mB5jauVczY3JDJu/Ek+IqPakuGe8AT/0zukBtO1INnIfZAGnGSE9qXNEX93GWHREB/mJqAncZZ9thEYTbu3jeuXZEEu1c52w7LHmeupsPrO7AHfEHdkS6YrPIx9QU7cfxGwQMA8oFik1UvMYVtgGbgM2OU93Ym3EB5a+93vCCs+ywVLKN2c5TvW7rXDsig4hxvfOwSjcI8CjgAUSGZb/UZwGKlK5Dxj+HVLyEFNWgCEVv1zPktToShUU0HHMR7sjJiLok4nFiDQ001deTiMVaS4TZQIYt9/Ms8E1mTH4307dk2+FJAotAdksZgesFflLlVLu2HSkGqlJ9BBV9DjjZcapren79yBRBzwIp8VptBOYrPNPRLrNth0eLqQ3saTIaU1M8/VHHiyG27UixoBMxxc3Hi9nV9VxatF7hTsepfqHSjowFPQ8Y3trep7srzJIkNxhFXYHFIN1JVrsHMCtZW/OK05/gONXddnyvtMODFWYAJwCHCoxWKBUkz6hKmlBTJ3kz8I6Y+fYvheVOF5Mv2HZ4f4FzvTA+QLeB/LXKia7owRz7jMA3TFuqmPrPt1d1c95U2pGQoqcLHGWCbxWFV4JdJL9ihR9KVpOfoiqgFlJUg4xfhoxfipRs9H62IOGyIy/GjgMAaslvfJlCdyKIEAgGCZSUkFdURLypiVh9PbHGRjRZKswUGbb4IC5F9bxsID8PJ3nSXDK2g1RXmaLmOE601rYjjsLnJGkRiyGWQ4FFPblwxLYF9HyQ85IGB0XHAZV06AsoXwQuSz4P9BDg+Uo7vMNErfBto+1oWdtclgLoHrY9+zSF0wW5JM010pwllkdmA45KOxICPg/6PeAIQYqSnyblvouBcmOm0JOAHwhUVdrhP1Y51W904XJfAn6Y0l9jbTt8huNU13ed/CJFoL8COSmpHVehFvhzN/WmSSDXexJvc1snddUGOFPMGyNL1V1QtZBADBn7ItYx85Ap1R75GVIE0NoY1MVNZhoXmrYsI1H/vneMITnLssgrKKBoyBAGlZdTWFpKMD+/JVN0s71wIGyGSQ7YgWDwxWB+/nnMmPxGNvS6bYeHAOHUN4KiL4G+knL4Itqm6C/GRIYEengLgim8nvr1IJDOXuxD0nw32Hwvl4LeJYbcyzrwBCj1pLLSbDcIVdqRIcAvgbtAZiaTX9e6WUaCfBt4oNIOn/LFSLgz3litKU7qatykKrq5APYDpqXcjwWcaNvhbtau1aNAh6U82fpOCVDmbC4BzkW602kDK/UpggxZixx+F9a0O5Fhq820VbPpgXhhdNsak6QpQZs207hxMaqJNpKdiBAIhSgoKaGkrIyS8nIKBg8eGDJMatMKBikoKflP0ZAh58Wn7rMiizr/cExUR8qriGhbPzddBTzedmExCxjVW4NoH50nwIXAnBbVrUtIZDf5hUsVrgN+4pF82s5QE06Q0A47TfYD5qlwRqUd6Yg7XgBJ9fMciYkE6g6ONqaHNjgYGNeNl3UecEzbzDuyNNiFmXKkdyNZaeuTYCMy9gVk4iJk0EbjE+tarctwAzTE0bp4a1VWIbbleeJlRxIaNBHVRNpQPrEsgnl5BPPy0OJiEvE48aYm4k1NJGKx1psnbU6WrhFeyjlWIEBeYSGhwsL/BkOhc7aOKXs1W3rek9rsNJLEhyD/Sj3ecarjnhp8ukDym3ss8Dngr1nwWHthNmvy0xFEmlFcg4nhXabwblty0RAwNCWNFUANSHeiQPKAIdIj8ouEQC8W9JukidJR2AD6LMi/vedpAh2syL7AUcDByT6c5h5kGHAd6Pr2zRfyPujLXlq0Xeq/osfadvgux6lOdGGOFQDHt7OARmJ4qava0ChgasrTx4EnOibAOZvzgK+KSHFW2voGr0cmP4yMeQWxYl5AgLSZrYribm+CREoKKxE0vo3GDY8QLB6HWJ27prUiQ1XcRIJEPE4iFjOfeBxNJIynSnekQ4/0AqEQofx8gvn5BILB5Yics3WvoS9l2dtnL9IkPhBYovBeO+csBV733t7NiyKgaKVth+/ujm2oP+BtAiSTwxYTUievAusV4klU1gg84TgPunYk8jDCfz2VPhmHAfNoTfgxTxJ7thu3Nt2zd/XAb1I/D/I9WmecxlNPq4DfgryaLizPtiNDgZMVfopJO5aM3YCrbDv8uuNUf9T2hRdttO3IEoVwymo8HBMh04UoIBnn2WXTjZWl6EzbDt/RxXjqg1M1DUU+BF7qTAKc0IUMHwNPfoCMWo41JYoMXdti52vvNRlz0Z3t9ZNFrOYVYjUvk1d2BKRRh9vnLG/zJBiEggKjRLguruvixuO4iQRuIoG6rvktmRBFEMvCsixDfMEgVjCIFQg0S6H/U+W8mjFDX8xCzer4VHuOQqOA4zjReDvq02ZBH1IjVSRjBibd+4vZMsOAR0CuBV50nGiHrkZONJoAPkgjwYwgfR6/Dxwn2mXn9Uo7sntPVP1KQ2A/SqP2uh4xX+440Zp2n8uJbgXutO3Im56EPjkNwX/DtiPXOOndiJ4F3QJSniLxf6ZrBKhH0ioxbBsc5r2I3+1EkrSAY6WNXVhfBNa0q8cHLvpISL/Ll1Hyk0AMa/8lWNP/gZStZZeuK+1benRnDGJu+yqq20DDuodwmzZ7O+Q9My2JJ8UFQyHyCgspKCmhqLSUoiFDKB46dJctsaS8nJKyMoqHDKGotJSCkhJCBQUEgsHmuiTvqOq3ayrKlmUb89l2uAjj+5eyeaFvqGq7kk3UcRT0IdDNKT+VASdH7NnZYmV5APim40SfcZzq3vhZWt38nj46vnm1HAc6Pc2SWAxc2RH5pRDhS8BPFLamse2cAbp7O3fwNil+np7545iIfbJ0ZrMTmNlJco09Pem4M5SlHme8hGWJ41TH2r1AIj+/FDg5OxyCPXtfXh1yYBQ50EHydxhbX0fxus2bHzubOklnZZGofZfGjY+h/ZDpOTksL/WTxh74DnBuTUV5tpa2nEybnTkAWaiinaW8fx1kaYo6A3CykHkXK4VVID9znOoN5DBsOxwEIiCp9sydAr9znOjmbjb5uPdiSMV+nq2wLX+QXwvyZJuKJ3CkYJV0ZmLRlA0TRT9WdGey+QSY6T1rR5gI7JMy0psUXdrZ2+XANGJv5sivcBty6D3Ifk8ggXjHKm8yGhNofbxT+xsojRsXEd/xBmDtKto0sI+qq4Bvb60ofzI7F9Zswdh1hqYQx1bgoajzoHYsTVTXA4623Tk9ADgiCx6xWpD/keMQZLgg6XZcX6EHuRgdJxrDOJjXplwnCBwVibSV3h907lPQp0Br04z1Pp08wXSQPVNUub8BL6Wxj+7Rye0fBaQQriwHebd9Arx8owAzRaQks0PZTH41yKH3YFW8iIgRYLuaqEVrm6ALdUkQC41to+Gj+3FjW5FeqMI94z7WKFywtaJ8SRYvrRHGLNKm85cBr3VDmliVspDyMT6BwQw+XBx4tspxXHIcChWaQgxq/rOsyonu6GGrr3nuTKmYJO26yMlykNQa1UMxdt8OpFedKa02bmSrGAk0dW2MoQPXGtuOFAJHt3Z/UUCfXDFySl37BKjWYODYrCC/gu3IIfdijfZ8a7tDfq7i1saSpLzOzS3xHW/QsH5hkm9g/5OgKmuBC2oqyh/J8rV1pMCElMXmgjqOE+3qLu5a4LE0vfpZYHwGZ1s96Ed8IqCj2ko9KF13G0mHraTf4d+Ddp3BdQspO95iFtWxHWQD2kNSCFLhNZA3QJ5Q2JHUVgg4vn1nem3edEluayfw1Lu3/FI7UoH39XTnDJKfIKF65EAHa69Xjf2gG+Rn1N84NHTDT9UjycYNjxHb+gJtnQn7hfw+NORX9mCW25VCwBdJcRcBXY0xrHdVnUoADlCX8tMoMhQm5sEFPilZmoftCn9qQQxY39MGayUUB9JV9BtE2ogc8OKql2jbfp2K2cRIh8PU7O62KL+wpMq8YFdgXKlSVdz2dosPT/PbW8lttEeA0yR9uNAAqYOCiItMeBwZ90K3Jb8W9TdufP+6peUJJOqo//Ae4nWr6E97oKquB70wXh98MAcW1T7ptQJZRBo3kE7wIvBqGsnA9jKUZM589omAFLV9FImD1PW0xUVVCxSkJs1PedBRblB9GVOsPvVlNzWNymphdn+Tswttb37BKrINeCJlNY5L31Y4iHF/SeE4eVZgS/sEePnmIMIRGd39VYFRryH7P27SWfWE/FxF67qj/ib3kYXb8CH1a+7EbdqESD+QoOpG4IfqJqp2ThicC8kIvwCkuDxoPeB0xbM/RQqsAdLtmBwKHISP3iKdepnA2Dl7g4a2YyYB6CgzvHwM8kLKyy7kqcEp/KMjabMZpitAX4ddrlSLkzdWBCkAZtr27FQuG0GbMg3aBPpEVVKmoHQS4HDR1nrzgKu+gzZhTX4YyavvEfkZgd9FG3sz3hbx7cupX/tPNFHbtyTokZ/l6j3bxo3IevKz7XApJu19SuIDXsVzJ+gBHiTFIdarHxJpuzB8dBPBVLO/gCu9J0A3jcgsHa1Q4xivj+uudOu7MIMUbwKMk/zere+cJ9RIgc34D5DqSH40SGrM8IGYTZLk1t7H7IS3dFSae95bhdEZkf9UQFxkn2eQoWt6Tn6ANsQh3gtu8WKFm7Y8hwQHUTjqdMQy4W+9KgKluhn4sST07i3jh+XKjuMh6dQMgUJFLqu0Iz141ZGXbkEBnwduaMfe5KNriKfq9WqEnUAv25U045j0T7unPQ+so/XO9D6YfYZnvJeshYkLT/Zd3CmwuHVuR9lq3GtIDpPbD1OY63HT1mzB5C9IzRjzQupLN5hmZk4BSjJhDVEEGfwxMubFJELsYVv18d7X8hUBdWnc8C/Eyqdgjy8iVj6qbo9IUJUakEst1/1/uUJ+3sS0hXTx4HKQ9FBl7aD39sGkzP+nz2M9RixNAgeLXtYBBwrajpt2RbVehbH5JhPgIExCg2e8GVEGegytkkfImwL/TZEo1bYjixW+I7tsj1IE+lnbnr3EcR5UkxKNI1u3hQuyJDVUs7WqMWezBRyYkTKXzVUoRy1HirfQbnhbV5py1UiAfQER0AQN6x+k/sN70UR9j9RhVbZjAsv/tmXcsFzyNRvNAOaC3FU0KRLO93msx4upMU0YchC0l4XMNF06rSZMBmk6UIMbQFttXni+eUfbdti7J51CUp0Y79gnFWrSNPkyScW2PJr4bFIas31BUr1Y1gPPtzV0tZ59JUhm3F8UkGATMvxdTNWiXpBwzIVYH6ZpEwE3TuP6hdSt+TturAbZFQrbORF65HcZcFtNRVkix1bTZ6Ubudf6CEch7O8TWY+xJc3EDLErG3JPNIFIMLX0gYdaulTpTp6hTTwxUzAJEsBkDE/WMuqARe0kWtgMPJ3yw0RMlAnAEaBDUs55lRQH/LYEqIxEW3xwBhzBRijeSm+9ETSWgEQf7y146nDTxiXUrvoT8br3aPYT7EgaVNVa4Arg1pqKsngurSLv7VxJm8QH/S0FmqJJp3QSNO+jXawlpSSA5w7Sm0p8g0nvqL4BU0SpM/yPto7YI4FDbTtcAhyXUlPlLdBX25EoXdBFXlqy5Pv7rG2HQ2KSn0qKevlkusw+qTaBMZhaABmS3C1IBJNEwh6205gAtx82V02mFuLb/kttwzoKdguTV34kEiimxZ6vnulRANkJ+kvQP9dUlMdzcCFNkrRhS/oaSBW9D5NRoAg4E5NjLkmp0XACa14aqcFH53jfI6aKlO+n2Xa4sGe5F3U/gfFp/Av/1xUJULF2CImn1NQjSSJlPdokoWijeT5Nkr9eGryESYV1QLNKregxQFRhautdcKkR0x4dE6CwD213TgbqrQ+xQnTd/kj5+71Sg7VZ/e0PW6aXTt9tXE/dB3fQVPMS+cOPJzhoIlawBLAMT8Z3kqj/4J688uk3bt5dYrm2gmw7LMDJqS9EY0zmFseJ3tw317EFtFzgW2nUo8OBR30+6/Yk/RgTm51KgId5/fp8d1qLGB+7CCkhb55ry3PNlfQ6QtSpUtsOPwnyA++l1zyfDgcaBUmyL2qDwKKqjttdjwmzOyDpu8nA11u/TAH0TTUSKO2rwHM2C8q+kilnePHqe7x7xL80nvdQj0UK1fZz//Xp/VqgceLbXqF25R/Y+c411H3wdxrWL6RhncPOlTey4+2rjt783MxjcnQVDTME2GY+fADyWF9dxHEcxQS6p6pshUBlL4omfWrhONFGTEF6N0XIKAO+W7lr46FrsJCpwFfTSH9r0fSSVTuL5r+0jSfe17Td6rh3QV7q+BmrXZBFakL8mufMMIGzJSkNmFFR5GlR3d4xARoj6bhMDZoqIPqYbhlzrhRuO1tV5mtP0rG4isYHaJNVxJjH3CYSO9+icf2D1H9wB/Vr7iK+7RVw4/uA3MaCmSfn4Do6IuXt2jxSi9vJCtIbPK8p7g4ejocM2qRzGw/TRuoRBE4BLqxsPxlBioQeGQNyrSTV90gi1KiIrOzGKt+EqQedfEehZOnPcwZ5RmFjFxp8gdYbGxZIinO1NoA+URVNn6rNSrqTEoTRGRywRSjnc13+B/F9ohsQ/T5wd7dJ0KXvN0C6SoS7wg6b/7+AyBiQeSyYZfPCCTlh1PcSH1RKSkJNhXqQqu6GvnWGOIkaz3aTOnAVZFVJhtyBqqwBbm2be1EKgJ8BV9t2eHRHc6DSjhwp8Dc1DsqkqL+rFL21qp0SCB1IbUuSpbY0aAIec7y60p3gY+DZjle7vEf6l2sbCXAoMHzgB0pR1ceBbzO3fNfbJDFx/gbgB6jc1VxOq8uipGYquqw5MKgNz+0J3MRa1+bBY3OBBMdj0lOl4j8ofZ6m/yHnIQUWkpKtxNu5tL00/D66gWjUUeAfmJDD1HlaBFws8LBth6+17XClbYcPq7QjB9l2+KhKO/wNgb8q+gBwnLQhP+qBa7RtZpauLNAXQdd28PtK4N9dVPUTmEQJHZCwLgPZ0DkBGheYIQPLfoAxZJ6fTH5JJGgSBqB/VaVreq2rA5HCryfYA7iJxtCXuPv4bI91PUFS0hWZd5BWuxKq6adrvgWkKwMwDTIVm57b8AobXaKmIl/blzUySZBLgHsxJS6XAI8AfwX5miDD00h+TaDXg9wZbRWi1mV86JXhbA/PodqNtF26LE22mWZ6SXjRH25XJMDd6TCtTd+Tn8IykPOYW/5Oe4clDrh7M3AR6K0mS2mXiTULIbsDfyIkZ7BgVlaSoG2HBwN2WzFW1oEsrHbu135arE3AA6m547z0+7NtOyLpRe6eiuqfGhJ8G/iWGmLT9J0hQc8ON8SEPKZ3n1DYBnI1cE1n1fI6UINjmByBae5F4wKPOdFumVjWkpbgAfRD0A6lSStFQhmwHTc1W/HnMLes0yy1iQPm1whcqnCrdoUEs3l6iwxH5PfA17OUBIeR1mFWn/SktP7E06Qx3AOHguanec3F0y0i2mYeSUVjOt2Bvk2IGm9nJjZ1b51oXNE0WiixrpNO9E3gTIWfKazS7q/VJjUxu2ca8quu64NxTqMGy9vtk1m7hBoH+Ze2SayhCDwtypqOzk/2A9xzYGKAFVVeAjmXuWVdtiHED5i/LfD6Vy4DYijnI4Ry+N1eDlyPItw3806+tCiLwuNkPXCHmky7zb25EeT6dAW0+xjrgbkK59DijxoHuS+VOFwsAiTmq/H5Kkoil7+S4lKTBo96/mfDWshPngN9rw/78Q3gr2p805prK7yGSefUHbzutXNASzvyvCTFwnaRBDdiPzPX5rf3AWGFmaD7e3V7C1pnkJY4JsTtY9CXQB4CFvegmlx7eAe4XI3PXoHXN9uAWzEFy7uLhaC/VmSGJ8SpUbX5jRPtuHC6meAmCcLfROT/BoD+/gucxdXlr/Tk/OCK00tU+BnC9yVN4keNJUi8vx2aEmRHSc+OOkO3IlwG8hdOeSxrIkVsOxLwJmZzBzYNAPklX78wSRtx4yr1DxmjfrpjC5Je5Imu1iax7Ug+7HqJqiL10T4uiGTiZ8lPIsAGz3CfkXZS2iwyNX1lNDDSS3QQMNKxbDX1UWQNsNHpxk5vL8Y55vkv9ggnR2ZLUKxCT6tVb852KiU3E2A+UCUiX+jf9a7LgW8xt/zfvWkn8PpXihCuAH4kKTUqNOEaAmyIZz8BGmwHLkf4M198LBfD5Xz4yFk0i7359HMMsKquAM7pLfkBJA6YX6dwFSq/VU2x51iChHIoobAyGJiL6ndYMDPkT0kfPgaeAItpt7RdX5AfbwHnMbf8hb5q0504vw7lauAa1Rabj4hAXg5FTxkhdZAhQb7HfTPz/Gnpw8fAE2C/VONS5V2Mk/PSvm47MenuelSvBb0K1V07U1IQ3JW5JYeYsAS4CuHHLJjlJwP14WMACXAQ/eADqMp7hvzKnuyvB0hMmt8ocL3CVeqRoBQEIZiDdXVEikCuAC5mwawCf3r68DEwBDiYPk6Dpcoqj/we7++HiB8wvwlTSOdKYCd5FlIYzM0REQqBOSg/4f6ZPgn68DFABNhnBnhF14J+l7lliwfqQRIHzG9C5UZVLhOR7TIoLwfV4F0oAP0pcDkLZhX709SHj/4lwFL6KApEVT9E+S5zyx8e6IdJTLo7pjBP4VIpDm0jV6VAow7nI/IT4EoWzCrxp6oPH/1GgDJY+sBpTlU/Ar7LttrqTD2Qe8DdcUVvI2Rdag3Jr8HKWSkQTyr/AfBzFsz0SdCHj/4hQB2kvcwgoCaDw4XUN0X5014ZZRx34vy4FOTdJsWhH0tRaLN3g7k5QkoIuBC4ivtnDvanrA8ffa8C98oFRpVNID/ClQe4YfesYJr42L8nAvuW3yFFoe8TtDbm7AiJJwkq3wV+zf2zhvrT1oePvlWBS3qaCEGVzcCPSTCfa8qySsxqKvyzG5o6/G6C1g8Q2ZjDqjCIBEHORfgNC3wS9OGjbwjwko8EtEcZd1XZ4pHfXVxb5mbjAzaW3OZSEJgPfBfho5weLcECzgKu4/6ZZf709eGjtwQYCFkklanrMvmh20Avgewlv104/iGXLevuA85B9e2cHzPVbwK/Y8GsEf4U9uGjN4tJLItuRoEougOYg+gdzC1L5MSTnvOacsqih4Gvoroki9NGd0UdthD5OvAHFszazZ/GPnz0lAARS0ylqC6qvboDZQ7KLVw9LPfSN5266CVDglyHak1OK8TwZeBGFsz0SdCHj54RIAE16bC6Qn61wBXAn5lbnru5605dtA7hp8AZKE92udZIduI04E/cP3NPfzr78NFtAtQgaOcpmJR6kKuAm3Oa/JpxyqI4py56BPRLwPdRfQ3N2W3iU4A/c//MMf6U9uGjmxIgncQBq1KvJl/d75lbHvtE9cCpizZx6qKbgJOBH6P6Cqo5RvACyGxE5rFgVoU/rX346OrKmbN5GPCoiBzcDvk1YMjvOn5V1viJ75H7Z+4GzPJUyxkIQ3OsiuKjqH6HUxet8qe3Dx+dEKDM2TwC5DGEKW21Xm1CuRbkGuaWNXyqeub+mUXAFOBEjxAnIpRkPRkqgC5GuIBTFr3tT3EfPjomwN1BFiNMTCG/GCbH3i+5urzuU91Lxul4CsJnUY4CJgLDQCSL+fAZ4DxOeexNf5r78NGuCrxlFLBYhP1SyO9G4OdcXV7rd1MrMhyEMA5lKjANOBCowBSVCmRZJbrnQM/hlEU+Cfrw0Q4BjgEWibAPgJoNgD8gXMnV5Tv9LuoAd84QCotLgVHABEwR7InAeGB3YAiQb6TETBGjLkU5j1MXrfAHzIePtgQ4ziPAcSgJRecBlzG3fIffPT2SEEOYDNsjgb2Acd6nAtgDGIFJQFuM8b+0PGNEfxEgKC8BZ3HqouX+APnw0YIgaBPQqCoK/AWVy/lVmU9+PcWpi2LAZu/zRgsxHh8EKfLIsQwY5pHhSGAEqiM8NXqId0wJJka7AMjzPkGPMC3A2B9TPRfbEKkAeggwG/AJ0IePVgQorEO5DHQUyP/jV2U1frf0BzEujgPbvc/a9NLj8UGQZrIr9MivqJ1PIUqhJ0UWeP/meU7tIZSgR5hBoA54yB8EHz7aigc+Pqn4+zFCKCTsdJVzl6jfIT58tMb/B8o9y+TRSHxhAAAAJXRFWHRkYXRlOmNyZWF0ZQAyMDI0LTExLTA2VDEyOjQyOjE5KzAwOjAwoWSVxwAAACV0RVh0ZGF0ZTptb2RpZnkAMjAyNC0xMS0wNlQxMjo0MjoxOSswMDowMNA5LXsAAAAASUVORK5CYII=;fontFamily=Verdana;fontSize=15;" parent="1" vertex="1">
          <mxGeometry x="270" y="110" width="170" height="65.88" as="geometry" />
        </mxCell>
        <mxCell id="aiPGaI7tTqKj_MKPzglg-5" value="" style="endArrow=classic;html=1;rounded=0;exitX=0.962;exitY=0.469;exitDx=0;exitDy=0;exitPerimeter=0;flowAnimation=1;fontFamily=Verdana;fontSize=15;" edge="1" parent="1" source="MzRNL4-QLkqZmelXcO3N-5" target="MzRNL4-QLkqZmelXcO3N-17">
          <mxGeometry width="50" height="50" relative="1" as="geometry">
            <mxPoint x="-70" y="540" as="sourcePoint" />
            <mxPoint x="-20" y="490" as="targetPoint" />
          </mxGeometry>
        </mxCell>
        <mxCell id="aiPGaI7tTqKj_MKPzglg-6" value="" style="endArrow=classic;html=1;rounded=0;flowAnimation=1;entryX=0;entryY=0.681;entryDx=0;entryDy=0;entryPerimeter=0;fontFamily=Verdana;fontSize=15;" edge="1" parent="1" source="MzRNL4-QLkqZmelXcO3N-17" target="MzRNL4-QLkqZmelXcO3N-2">
          <mxGeometry width="50" height="50" relative="1" as="geometry">
            <mxPoint x="70" y="540" as="sourcePoint" />
            <mxPoint x="160" y="540" as="targetPoint" />
          </mxGeometry>
        </mxCell>
      </root>
    </mxGraphModel>
  </diagram>
</mxfile>
